/* XPM */
static char *result[] = {
/* columns rows colors chars-per-pixel */
"100 100 8 1 ",
"  c black",
". c #AE7221",
"X c #329C1F",
"o c #3DB428",
"O c #46D42D",
"+ c #C98325",
"@ c gray85",
"# c white",
/* pixels */
"OOoooOOOOOOOOoooOOOOOoooOOOooOOOOOOOOoooOOOOOoooooooOOO#oOOOOOOOOoo#OOOOOOOooooOOooOOOOOOOOooOOOoooO",
"OOOooOOOOOOOOooOOOOOOOooOOOooOOOOOOOOOooOOOOOoooooOOOOO#oooOOOOOOoo#OOOOOOOOoooOOoooOOOOOOoooOOOoooO",
"OOOOOOOoooOOOOOOOOOOOOOOOOoooOOXXXOOOOOOOOOOOOOOOOOOOO##oooooOOOOo#oOOOooOOOOOOOOoooOOOOOXXooOOoooOO",
"OXXXOOOoooOOOOOOOooOOOOOOOoooOOXXXOOooOOOOOooOOOOOOOO##XOOoooOOOOO#oOOOooOOOOOOOOOooOOOOOXXoOOOoooOO",
"OXXXOOOooOOOOOOOoooOOXXOOoooOOOXXOOoooOOOOOooOOOOOOOO#XXXOOOOOOOO#ooOOoooOOOOOOOOOOOOOooooooOOOXXOOO",
"OOXXOOOooOOOOOoooooOXXXOOoooOOOOOOOoooOOOOXXoOOOOooO##XXXOOoooOO##OOOoooOOOOooOOOOOOOOoooooOOOoXXOOO",
"OOOOOOOoXXOOOOoooOOOXXOOOOOOOOOOOXXooOOOOoXXoOOOOooO#OOOOOOoooo##OOOooooOOOoooOOOOooOOOOOOOOOOoooOOO",
"OOOOOOOoXXOOOOoXXOOOOOOOOOOOOOOOoXXooOOOooooOOOOoooO##OOOOOOooo#OOOoooOOOOOooOOOOOooOOOOOOOOOOooOOOO",
"OooOOOOoooOOOOoXXOOOOOOOooOOOOOOooooOOOooooOOOOooooOOOOOOOOOOoo#OOOXXOOOOOoooOOOOOooOOOOOOOOOOOOOOOo",
"OooOOOOOooOOOoooOOOOOoooooOOOOOOOOOOOOOoooOOOOooooOOOOOOOooOOOo#OOOXXOOOOOoooOOOOXXoOOOOooooOOOOOOoo",
"OoooOOOOooOOOoooOOOOoooooOOOOOOOOOOOOOOo#OOOOOooOOOOOOOooooOOXX#OOOooOOOOoooOOOOOXXooOOOooooXXOOOOoo",
"OOooOOOOooOOOooOOOOXXoOOOOOOOOOOOOOOOOO##OOOooooOOOOOOooooOOOXX#OOOooOOOOoooOOOOOOoooOOOOOOoXXOOOooo",
"OOXXoOOOooOOOOOOOOoXXoOOOOOOOoooOOOOooo#OOOOoooOOOOOooooOOOOOOo##OOooOOOOooOOOXXOOOooOOOOOOOoooOOooO",
"OOXXoOOOooOOOOOOOOoooOOOOOOOooooOOOOoo#oOOOoooOOOOOoXXoOOOOOOOoooOOOOOOOOOOOOOXXXOOoooOOOOOOOooOOooO",
"OOOooOOOOOOOoooOOoooOOOOOOoooooOOOOOOO#ooOXXoOOOOOooXXOOOOOOOOOooOOOOOOOOOOOOOXXXOOOoooOOOOOOooOOOOO",
"OOOooOOOOOOooooOOoooOOOOOooooOOOOOOOOO##oOXXoOOOOOooOOOOOOOOOOOooOOOoXXOOOOOooOXXOOOooXXOOOOOooOOOOO",
"OOOooOOOOoXXooOOOoooOOOOOoooOOOXXOOOOOO#OOOoooOOOOooOOOOooOOOOOooOOOoXXOOOOOooOOOOOOOoXXooOOOooOOOOO",
"OOOooOOOooXXoOOOOOoooOOOXXoOOOOXXOOoooO#OOOOooOOOOooOOOoooOOOOOOOOooooOOOOOOooOOOOOOOOooooOOoooOOOOO",
"OOOOOOOooooOOOOOOOoooOOOXXoOOOOXXOOoooO#OOOOoooOOOooOOOoooOOOOOOoooooOOOooOOoXXOooOOOOOOooOOooOOOOOO",
"OOOOOOooooOOOOOOXXOOOOOOOooOOOOOOOOOooO#OOOOOooOOOXXoOOooooOOOOOooooOOOOooOOoXXOoooOOOOOOOOOooOOOOoo",
"OOOOOooooOOOOOOOXXXOOOOOoooOOOooOOOOooX#OOOOOooOOOXXoOOOooooOOOOooOOOOOoooOOooOOoooOOOOOOOOOooOOOXXo",
"OOOOOoooOOOOOooOOXXOOOoooooOOOoooOOOooX#OOOOOooOOOOoooOOOOXXOOOXXoOOOOoooOOoooOOOooOOOOooOOOooOOOXXo",
"OOOOoooOOOOOOooOOOOOooooooOOOOoooOOOOoo#OOOOOOOOOOOOooOOOOXXOOOXXoOOOoooOOOooOOOOooOOOOoooOOooOOOooO",
"OOOooXXOOOOOOooOOOOOoooOOOOOOOOooOOOOo##oOOOOOOOOOOoooOOOoooOOOoooOOoooOOOoooOOOOooOOOOoooOOOOOOoooO",
"OOoooXXOOOOooooOOOOOOOOOOOOOOOOOOOOOO##ooOOOOOOOOOooooOOOoooOOOooOOXXoOOOooooOOOOOOOOOOOoooOOOOOooOO",
"OoooOOOOOoooooOOOOOOOOOOOOOOooOOOOOOO#oooOOOOooXXooooOOO         OOXXoOOOoooOOOOOOOOOOOOoooOOOOOooOO",
"OooOOOOOOoooOOOOOOOOOOOOOOOOoooOOOOOOOOOOOOOOooXXooOO   +++++++++   ooOOoooOOOOOOOOooOOOOXXOOOOoooOO",
"OOOOOOOOoooOOOOOOOOooOOXXXOOoooooOOXXXOOOOOOOOOOOOO  +++++++++++++++  OOoooOOOOOOOOooOOOOXXOOOOooOOO",
"OOOOOOOOooOOOOOOOOoooOOXXXOOOOoooOOXXXOOOOOOOOOOOO +++++++++++++++++++ OooOOOooOOOOooOOOOooooOOOOOOO",
"OOOOOOOOooOOOOOOOOooOOXXXOOOOOOoooOOOOOOOOOOOOOOO +++++++++++++++++++++ OOOOoooOOOOooOOOOOoooOOOOOOO",
"OOooOOOOooOOOOOOOoooOOXXXOOOOOOoooOOOOOooooooooO ++++++++++++++++++++++. OOOoooOOOOooOOOOOOoooOOOOOO",
"OOoooOOOOOooOOOOOooOOXXXOOooOOOooOOOOOooooooooo +++++++++++++++++++++++. OOoooOOOOoooOOXXOOoooOOOOOo",
"OOOoooOOOOooOOOOOooOOXXOOoooOOOoooOOOOoooOOOO# ++++++++++++++++++++++++.. OoooOOOoooOOOXXXOOooOOOOoo",
"OOOOooOOOOooOOOOOooOOOOOOooOOOOOooOOOOooOOXX##++++++++++++++++++++++++... oooOOOOoooOOOXXXOOOOOOOOoo",
"OOOOooOOOOooOOOOoooOOOOOOooOOOOOooOOOoooOOXX# +++++++++++++++++++++++.... ooOOOOoooOOOOOXXOOOOOOOooo",
"OOOOoooOOOooOOOOooOOOOOOOooOOOOOOOOOOoooOOOX#++++++++++++++++++++++++.... ooOOOOoooOOOOooOOOOOOOOooO",
"OOOOOooOOOooOOOOooOOOOOOoooOOOOOOOOOOooOOOO #+++++++++++++++++++++++...... OOOOOOOOOOOOoooOOOOOOoooO",
"OOOOOooOOOooOOOOooOOOOOOooOOOOOOOooooooOOO ++#+++++++++++++++++++++....... OOOOOOOOOOOOooooOOOOoooOO",
"OOOOOXXoOOooOOOoXXOOOOOoooOOOOOOOoooooOOO +++#+++++++++++++++++++++....... OOOOOOOooOOOOOoooOOOooOOO",
"OOOOOXXoOOooOOOoXXOOOOoooOOOXXXOOOOOOOOOo +++#++++++++++++++++++++........ OXXOOOOooOOOOOOooOOOoooOO",
"OOOooOoooOOOOOoooOOOOOoooOOXXXXOOOOOOOOO ++++#++++++++++++++++++++........ OXXOOOOooOOOOOOoooOOooXXO",
"OOOooOOooOOOOooooOOOOoooOOXXXXOOOOOOOOOO +++#++++++++++++++++++++........ OOOOOOOoooOOOOOOOooOOOoXXO",
"OOOooOOooOOOOoooOOOOOooOOOXXXOOoooOXXXO +++##+++++++++++++++++++......... OOOOOooooOOOOOOOOooOOOoooO",
"OOOooOOooOOOOOOOOOOOOooOOOXXXOOoooOXXXX ++++++++++++++++++++++++........ OOOoooooooOOooOOOOoooOOOOOO",
"OOOooOOOOOOOOOOOOOOOOoooOOOOOOOOooOOXXX +++++++++++++++++++++++......... OOoooooOOOOOooOOOOoooOOOOOO",
"OOOoXXOOOOOOOOOOOXXOOOooOOOOOOOoooOOOO ++++++++++++++++++++++.......... OOOoooOOOOOOOooOOOOOoooOOOOO",
"OOOoXXOOOOOOooOOOXXXOOoooOOOOOOoooOOOO +++++++++++++++++++++.......... oOOOooOOOOOOOOooOOOOOOooOOOOO",
"OOOooOOOooOOooOOOOXXOOOooOOOOOOoooOOO ++++++++++++++++++++........... OOOOOOOOOOOOOOOooOOOOOOoooOOOO",
"OOOooOOOooOOoooOOOOOOOOOOOOOOOOOooOOO +++++++++++++++++++........... OOOOoooOOOOOOOOOXXOXXXOOOooOOOO",
"OOOooOOoooOOooooOOOOOOOOooOOOOOOoooOO +++++++++++++++++............ OOOOOoooOOOooOOOOXXOXXXXOOoooOOO",
"OOoooOOoooOOOoooOOOOOoooooOOOOXXOoooO +++++++++++++++............  ooOOOOOooOOOooOOOOooOOXXXXOOooOOO",
"OOoooOXXoOOOOOoooOOOooooooOOOXXXOOoo +++++++++++++.............  OOooOOOXXooOOOooOOOOooOOOXXXOOooOOo",
"OOooOOXXoOOOOOOoooOOoooOOOOOOXXXOOOo +++++++++++.............. OOOOooOOOXXoOOOOooOOOOooOOOOOOOOOOOOo",
"OOOOOOoooOOOOOOoooOOOOOOOOOOOXXOOOOO +++++++++..............  OOOOOOOOOooooOOOOooOOOOooOOOOOOOOOOOoo",
"OOOOOooooOOOOOOOXXOOOOOOOooOOOOOOOO ++++++++..............  OOOOOOOOOOooooOOOOOooOOOOoooOOOooOOOOOoo",
"OOOOOooOOOooOOOOXXOOOOOOOooOOOOOooO ++++++..............  OOOOooOOOOOooooOXXXOOooOOOOoooOOoooOOOOooo",
"OXXOOooOOOoooOOOoooOOOOOOooOOOOooo ++++++............   oOOOOOoooOOOOoooOOXXXOOoooOOOOOOOOooOOOOOooO",
"OXXOOooOOOoooOOOoooOOOOOoooOOOOoo ++++++..........   OOoooOOOOoooOOOoooOOOXXOOOoooOOOOOOOoooOOOOOooO",
"OOOOOooOOOOooOOOOooOOOOooooOOOOoo ++++..........  OoooOoooOOOOXXoOOooooOOOXXOOOOoooOOOOOOooOOOOOoXXO",
"OOOOOooOOOOooOOOOOOOOOooooOOOOooo ++........    OOOOXXOOooOOOOXXoOOoooOOOOOOOOOOOoooOOOOoooOOOOooXXO",
"OOOOOOOOOOOoooOOOOOOXXoooOOOOXXoo  ........ OOOOOOOOXXOOOOOOOOOooOOOOOOOOOOOOOOOOoooOOOOooOOOOooooOO",
"OOooOOOOOOOooooOOOOOXXoOOOOOOXXo ## .....  oOOOOOOOOooOOOOOOOOOooOOOOOOOOoooOOOOOOooOOOOooOOOooooOOO",
"OOoooOOOXXOOooXXOOOOOooOOOOOooo #### ..  oooOOOooOOOooOOOOOOOooooOOOOOOOOooooooOOOOOOOOoooOOOoooOOOO",
"OOOoooOOXXOOOoXXOOOOoooOOOOOoo ####@@  ooooOOOOooOOOoooOOOOOOoooOOOOOOOOOOOoooooOOOOOOoooOOOOOOOOOOO",
"OOOoooOOOOOOOoooOOOOoooOOOOOO ####@@ OoooOOOOOOooOOOoooOOOOOoooOOOOooOOOOOOOOOoooOOOOoooOOOOOOOOooOO",
"OOXXooOOooOOOoooOOOOooOOOOOO ####@@ OOooOOXXXOOooOOOOooOOOOOooOOOOoooOOOOOOOOOoooOOOOoooOOOOOOOOooOO",
"OOXXoOOOooOOoooOOOOOOOOOOOO ####@@ OOOooOOXXXOOooOOOOooOOOOXXoOOOooooOOOOOooOOOooOOOOOOOOOOOooooooOO",
"OOOooOOOooOOooOOXXOOOOOooO ####@@ OOOOooOOXXXOOooOOOOooOOOoXXOOOoooOOOOOooooOOOooOOOOOOOOOoooooooOOO",
"OOOooOOOooOOOOOOXXOOOO    ####@@ oOOOOOOOXXOOOOoooOOOOOOOooooOOoooOOOOOooooOOOOooOOOOOOOOOoooOOOOOOO",
"OOOOOOOXXoOOOOOOOOooo #######@@ oooOOOOOOXXOOOOoooOOOOOOooooOOOooOOOOooooOOOOOOooOOOOOOOOOooOOOOOOOO",
"OOOOOOoXXoOOOOOOOooo #######@@ OooooOOOOOOOOOOOOoooOOOOOooOOOOoooOOOooooOOOXXOOOOOOOOOooOOooOOOOOOOO",
"OOOOOooooOOOOOOOooo #######@@ OOOooooOOOOOoooOOOOooOOOOoooOOOOooOOOoooOOOOXXXOOOOOOOOOooOOooOOOOooOO",
"OOXXooooOOOOOOOooo ########@ OOOOOOooOOOOooooOOOOOOOOOOooOOOOOooOOOooOOOOOXXXOOOOOOoooooOOOOOOOOooOO",
"OOXXoooOOOOOOOOooO #######@@ OOOOOOoooOOOoooOOOOOOOOOOOXXOOOOOOOOOoooOOOOOOOOooooooXXoooOOOOOOOoooOO",
"OooooOOOOOOooXXooOO  ####@@@ oOOOOOXXoOOOooOOOOOOOOOOOOXXOOOOOOOOOooOOOOOOOOOooooooXXOOOOOOOOOoooOOO",
"OoooOOOOOOOooXXooOOO ###@@@ oooOOOOXXooOOoooOOOOOOOOOOOOOOOOOOooooooOOOOoooOOOOOOOOOOOOOOOOOOOXXoOOO",
"OoooOOooOOOOOOOOOOOOO  @@@ OoooOOOOOOooOOOoooOOOOOXXoOOOOOOoooooXXoOOOOOooooOOOOOOOOOoooOOOOOoXXOOOO",
"OoooOOooOOOOOOOOOooOOO @@ OOOoooOOOOoooOOOOoooOOOOXXoOOOOOOooooOXXOOOOOOOoooooOOOOOOOoooOOOOOoooOOOO",
"OOooOOooooOOOOOOOooOOOX  OOOOoXXOOOOoooOOOOOooOOOOooOOOOOOOOOOOOOOOOOOOOOOooooOOOOOOOooOOOOOOooOOOOo",
"OOooOOoooXXoOOOOOooOOOXXOOOOOOXXOOOOooOOOOOXXoOOOOooOOOOOOOOOOOOOOOooOOOOOOOOOOOOOOOoooOOOOOOooOOooo",
"OOooOOOOOXXoooOOOOOOOOooOOOOOoooOOOOooOOOOOXXoOOOOooOOOooOOOOOOOOOOooOOOOOOOOOoooooooooOOXXOOooOOooo",
"OOOOOOOOOOOooooOOOOOooooOOOOOoooOOOoooOOOOOOoooOOOooOOOoooOOOoooOOOooOOOooOOOOoXXooooOOOOXXOOooOOooO",
"OOOOOOOOOOOOoooOOOoooooOOOOOOooOOOOoooOooOOOoooOOOooOOOOoXXOOoooOOOoXXOOooOOOOOXXOOOOOOOOOOOOooOOooO",
"OOOOOOOOOOOOOooOOOoooOOOooOOOoooOOOooOOooOOOooOOOoooOOOOoXXOOOooOOOoXXoOoooooOOOOOOOOoooOOOOOooOOooO",
"OOOOoooOOOOOOOOOOOooOOOOoooOOOooOOOOOOOooOOOooOOOoooOOOOooOOOOoooOOOooooOooooooOOOOOOoooooOOOooOOOOO",
"OOOOoooOOOXXOOOOOOooOOOOOoooOOoooOOOOOOooOOOOOOOOXXOOOOOooOOOOooooOOOOooOOOOooooOOOOOOOooooOOOOOOOOO",
"OOOOooOOOOXXOOOOOoooOOOOOOoooOOooOOXXOOooOOOOOOOOXXOOOOoooOOOOOoooOOOOoooOOOOoooOOOOOOOOOoooOOOOOOoo",
"OOOOooOOOOOOOOOOooooOOOOOOOooOOooOOXXOOooOOOOOOOOOOOOOOXXOOOOOOOoooOOOOoooOOOOoooOOOOOOOOooooOOOOooo",
"OOOOXXOOOOOooOOOoooOOooOOOOooOOOOOOXXOOooOOOOOOOOOOOOOOXXOOOooOOOoXXOOOoooOOOOOooOOOOooOOOoooOOOOooo",
"OOOOXXOOOOOooOOOOOOOOooOOOOXXOOOOOOOOOoooOOOOOOOOOOOOOOOOOOOooOOOoXXOOOOooXXOOOXXOOOOooOOOOooOOOOooO",
"OOOOooOOOOOooOOOOOOOOooOOOOXXOOOOoooOoooOOOOOXXoOOOOOOOOOOOoooOOOooOOOOOOoXXOOOXXOOOOooOOOOOOOOOoooO",
"OOOOooOXXOOooOooOOOOoooOOOOoooOOOoooOoooOOOOOXXoOOooOOOOOOOoooOOOOOOOOOOOooOOOOooOOOOooOOOOOOOOOoooO",
"OOOOooOXXOOXXOooOOOOooOOOOOoooOOOOooOOOOOOOOOoooOOoXXOOOOOOooOOOOOOOOOOOOooOOOoooOOXXooOOOOOOOXXooOO",
"OOOoooOOOOOXXOooOOOOXXOOOOOOoooOOOooOOOOOOOOOOooOOoXXOOOOOOooOOOOOOOOXXOOoooOOoooOOXXooOOooOOOXXoOOO",
"OOOoooOOOOOooOooOOOOXXOOOOOOoooOOOooOOOOoooOOOooOOOooOOOOOooXXOOOOOOOXXOOOooOOooOOOOooOOOooOOOOooOOO",
"OOOooOOOooOooOoooOOoooOOOOOOOooOOOXXOOOooooOOoooOOOooOOOOOooXXOOOooOOXXXOOooOOOOOOooooOOOooOOOOooOOO",
"OOOOOOOOooOOOOoooOOooOOOOooOOoooOOXXOOOoooOOOooOOOOoooOOOOoooOOOOoooOOXXOOooOOOOOooooOOOOoooOOoooOoo",
"OooOOOOOooOOOOoXXOOooOOOoooOOoooOOooOOOooOOOoooOOOOOooOOOoooOOOOOoooOOOOOOoooOOOoooOOOOOOOooOOooOooo",
"OooOooOOXXoOOOoXXOOooOOOooOOOOooOOooOOOooOOOoooOOOOOooOOOoooOOOOooooOOOOOOOooOOoooOOOOOOOOooOOooOooO",
"OooOooOOXXoOOOoooOOooOOOooOOOOOOOOooOOOooOOOooOOOOOOOOOOOooOOOOOoooOOOOOOOOooOOooOOOOOOOOOooOOooOooO"
};
