/* XPM */
static char *result[] = {
/* columns rows colors chars-per-pixel */
"100 100 8 1 ",
"  c black",
". c #AE7221",
"X c #329C1F",
"o c #3DB428",
"O c #46D42D",
"+ c #C98325",
"@ c gray85",
"# c white",
/* pixels */
"OOoooOOOOOOOOoooOOOOOoooOOOooOOOOOOOOoooOOOOOoooooooOOOooOOOOOOOOooOOOOOOOOooooOOooOOOOOOOOooOOOoooO",
"OOOooOOOOOOOOooOOOOOOOooOOOooOOOOOOOOOooOOOOOoooooOOOOOooooOOOOOOooOOOOOOOOOoooOOoooOOOOOOoooOOOoooO",
"OOOOOOOoooOOOOOOOOOOOOOOOOoooOOXXXOOOOOOOOOOOOOOOOOOOOOooooooOOOOoooOOOooOOOOOOOOoooOOOOOXXooOOoooOO",
"OXXXOOOoooOOOOOOOooOOOOOOOoooOOXXXOOooOOOOOooOOOOOOOOOXXOOoooOOOOOooOOOooOOOOOOOOOooOOOOOXXoOOOoooOO",
"OXXXOOOooOOOOOOOoooOOXXOOoooOOOXXOOoooOOOOOooOOOOOOOOOXXXOOOOOOOOOooOOoooOOOOOOOOOOOOOooooooOOOXXOOO",
"OOXXOOOooOOOOOoooooOXXXOOoooOOOOOOOoooOOOOXXoOOOOooOOOXXXOOoooOOOOOOOoooOOOOooOOOOOOOOoooooOOOoXXOOO",
"OOOOOOOoXXOOOOoooOOOXXOOOOOOOOOOOXXooOOOOoXXoOOOOooOOO#OOOOooooOOOOOooooOOOoooOOOOooOOOOOOOOOOoooOOO",
"OOOOOOOoXXOOOOoXXOOOOOOOOOOOOOOOoXXooOOOooooOOOOoooOOO#OOOOOoooOOOOoooOOOOOooOOOOOooOOOOOOOOOOooOOOO",
"OooOOOOoooOOOOoXXOOOOOOOooOOOOOOooooOOOooooOOOOooooOOO#OOOOOOoooOOOXXOOOOOoooOOOOOooOOOOOOOOOOOOOOOo",
"OooOOOOOooOOOoooOOOOOoooooOOOOOOOOOOOOOooo#OOOooooOOOO#OOooOOOooOOOXXOOOOOoooOOOOXXoOOOOooooOOOOOOoo",
"OoooOOOOooOOOoooOOOOoooooOOOOOOOOOOOOOOoo##OOOooOOOOO##ooooOOXXoOOOooOOOOoooOOOOOXXooOOOooooXXOOOOoo",
"OOooOOOOooOOOooOOOOXXoOOOOOOOOOOOOOOOOOOO#OOooooOOOOO#ooooOOOXXoOOOooOOOOoooOOOOOOoooOOOOOOoXXOOOooo",
"OOXXoOOOooOOOOOOOOoXXoOOOOOOOoooOOOOoooO#OOOoooOOOOO#oooOOOOOOooOOO#oOOOOooOOOXXOOOooOOOOOOOoooOOooO",
"OOXXoOOOooOOOOOOOOoooOOOOOOOooooOOOOoooo#OOoooOOOOOo#XoOOOOOOOoooOO##OOOOOOOOOXXXOOoooOOOOOOOooOOooO",
"OOOooOOOOOOOoooOOoooOOOOOOoooooOOOOOOOoo##XXoOOOOOo#XXOOOOOOOOOooOOO#OOOOOOOOOXXXOOOoooOOOOOOooOOOOO",
"OOOooOOOOOOooooOOoooOOOOOooooOOOOOOOOOooo#XXoOOOOO##OOOOOOOOOOOooOOO##XOOOOOooOXXOOOooXXOOOOOooOOOOO",
"OOOooOOOOoXXooOOOoooOOOOOoooOOOXXOOOOOOOO#OoooOOO##oOOOOooOOOOOooOOOo#XOOOOOooOOOOOOOoXXooOOOooOOOOO",
"OOOooOOOooXXoOOOOOoooOOOXXoOOOOXXOOoooOOO#OOooOOO#ooOOOoooOOOOOOOOooo#OOOOOOooOOOOOOOOooooOOoooOOOOO",
"OOOOOOOooooOOOOOOOoooOOOXXoOOOOXXOOoooOOO##OoooOO#ooOOOoooOOOOOOooooo#OOooOOoXXOooOOOOOOooOOooOOOOOO",
"OOOOOOooooOOOOOOXXOOOOOOOooOOOOOOOOOooOOOO#OOooOO#XXoOOooooOOOOOooooO#OOooOOoXXOoooOOOOOOOOOooOOOOoo",
"OOOOOooooOOOOOOOXXXOOOOOoooOOOooOOOOooXXOO#OOooOO#XXoOOOooooOOOOooOO##OoooOOooOOoooOOOOOOOOOooOOOXXo",
"OOOOOoooOOOOOooOOXXOOOoooooOOOoooOOOooXXOO#OOooOO#OoooOOOOXXOOOXXoOO#OoooOOoooOOOooOOOOooOOOooOOOXXo",
"OOOOoooOOOOOOooOOOOOooooooOOOOoooOOOOooOOO#OOOOOO##OooOOOOXXOOOXXoO##oooOOOooOOOOooOOOOoooOOooOOOooO",
"OOOooXXOOOOOOooOOOOOoooOOOOOOOOooOOOOooooO#OOOOOOO#oooOOOoooOOOooo##oooOOOoooOOOOooOOOOoooOOOOOOoooO",
"OOoooXXOOOOooooOOOOOOOOOOOOOOOOOOOOOOOooo##OOOOOOO#oooOOOoooOOOooO#XXoOOOooooOOOOOOOOOOOoooOOOOOooOO",
"OoooOOOOOoooooOOOOOOOOOOOOOOooOOOOOOOOooo#OOOooXXo##oOOO         ##XXoOOOoooOOOOOOOOOOOOoooOOOOOooOO",
"OooOOOOOOoooOOOOOOOOOOOOOOOOoooOOOOOOOOO##OOOooXXoo#O   +++++++++#  ooOOoooOOOOOOOOooOOOOXXOOOOoooOO",
"OOOOOOOOoooOOOOOOOOooOOXXXOOoooooOOXXXO##OOOOOOOOOO# ++++++++++++#++  OOoooOOOOOOOOooOOOOXXOOOOooOOO",
"OOOOOOOOooOOOOOOOOoooOOXXXOOOOoooOOXXXO#OOOOOOOOOO #+++++++++++++#++++ OooOOOooOOOOooOOOOooooOOOOOOO",
"OOOOOOOOooOOOOOOOOooOOXXXOOOOOOoooOOOOOOOOOOOOOOO #++++++++++++++#+++++ OOOOoooOOOOooOOOOOoooOOOOOOO",
"OOooOOOOooOOOOOOOoooOOXXXOOOOOOooo#OOOOooooooooO +#++++++++++++++#+++++. OOOoooOOOOooOOOOOOoooOOOOOO",
"OOoooOOOOOooOOOOOooOOXXXOOooOOOoo##OOOooooooooo ++#++++++++++++++##++++. OOoooOOOOoooOOXXOOoooOOOOOo",
"OOOoooOOOOooOOOOOooOOXXOOoooOOOoo#OOOOoooOOOOO ++#++++++++++++++++#++++.. OoooOOOoooOOOXXXOOooOOOOoo",
"OOOOooOOOOooOOOOOooOOOOOOooOOOOOo#OOOOooOOXXO ++++++++++++++++++++++++... oooOOOOoooOOOXXXOOOOOOOOoo",
"OOOOooOOOOooOOOOoooOOOOOOooOOOOOo#OOOoooOOXXX +++++++++++++++++++++++.... ooOOOOoooOOOOOXXOOOOOOOooo",
"OOOOoooOOOooOOOOooOOOOOOOooOOOOOO#OOOoooOOOX ++++++++++++++++++++++++.... ooOOOOoooOOOOooOOOOOOOOooO",
"OOOOOooOOOooOOOOooOOOOOOoooOOOOOO##OOooOOOO ++++++++++++++++++++++++...... OOOOOOOOOOOOoooOOOOOOoooO",
"OOOOOooOOOooOOOOooOOOOOOooOOOOOOOo#ooooOOO ++++++++++++++++++++++++....... OOOOOOOOOOOOooooOOOOoooOO",
"OOOOOXXoOOooOOOoXXOOOOOoooOOOOOOOo#oooOOO +++++++++++++++++++++++++....... OOOOOOOooOOOOOoooOOOooOOO",
"OOOOOXXoOOooOOOoXXOOOOoooOOOXXXOOO##OOOOo ++++++++++++++++++++++++........ OXXOOOOooOOOOOOooOOOoooOO",
"OOOooOoooOOOOOoooOOOOOoooOOXXXXOOOO#OOOO +++++++++++++++++++++++++........ OXXOOOOooOOOOOOoooOOooXXO",
"OOOooOOooOOOOooooOOOOoooOOXXXXOOOOO#OOOO ++++++++++++++++++++++++........ OOOOOOOoooOOOOOOOooOOOoXXO",
"OOOooOOooOOOOoooOOOOOooOOOXXXOOoooO#XXO ++++++++++++++++++++++++......... OOOOOooooOOOOOOOOooOOOoooO",
"OOOooOOooOOOOOOOOOOOOooOOOXXXOOoooO#XXX ++++++++++++++++++++++++........ OOOoooooooOOooOOOOoooOOOOOO",
"OOOooOOOOOOOOOOOOOOOOoooOOOOOOOOooO#XXX +++++++++++++++++++++++......... OOoooooOOOOOooOOOOoooOOOOOO",
"OOOoXXOOOOOOOOOOOXXOOOooOOOOOOOooo##OO ++++++++++++++++++++++.......... OOOoooOOOOOOOooOOOOOoooOOOOO",
"OOOoXXOOOOOOooOOOXXXOOoooOOOOOOooo#OOO +++++++++++++++++++++.......... oOOOooOOOOOOOOooOOOOOOooOOOOO",
"OOOooOOOooOOooOOOOXXOOOooOOOOOOoo#OOO ++++++++++++++++++++........... OOOOOOOOOOOOOOOooOOOOOOoooOOOO",
"OOOooOOOooOOoooOOOOOOOOOOOOOOOOOooOOO +++++++++++++++++++........... OOOOoooOOOOOOOOOXXOXXXOOOooOOOO",
"OOOooOOoooOOooooOOOOOOOOooOOOOOOoooOO +++++++++++++++++............ OOOOOoooOOOooOOOOXXOXXXXOOoooOOO",
"OOoooOOoooOOOoooOOOOOoooooOOOOXXOoooO +++++++++++++++............  ooOOOOOooOOOooOOOOooOOXXXXOOooOOO",
"OOoooOXXoOOOOOoooOOOooooooOOOXXXOOoo +++++++++++++.............  OOooOOOXXooOOOooOOOOooOOOXXXOOooOOo",
"OOooOOXXoOOOOOOoooOOoooOOOOOOXXXOOOo +++++++++++.............. OOOOooOOOXXoOOOOooOOOOooOOOOOOOOOOOOo",
"OOOOOOoooOOOOOOoooOOOOOOOOOOOXXOOOOO +++++++++..............  OOOOOOOOOooooOOOOooOOOOooOOOOOOOOOOOoo",
"OOOOOooooOOOOOOOXXOOOOOOOooOOOOOOOO ++++++++..............  OOOOOOOOOOooooOOOOOooOOOOoooOOOooOOOOOoo",
"OOOOOooOOOooOOOOXXOOOOOOOooOOOOOooO ++++++..............  OOOOooOOOOOooooOXXXOOooOOOOoooOOoooOOOOooo",
"OXXOOooOOOoooOOOoooOOOOOOooOOOOooo ++++++............   oOOOOOoooOOOOoooOOXXXOOoooOOOOOOOOooOOOOOooO",
"OXXOOooOOOoooOOOoooOOOOOoooOOOOoo ++++++..........   OOoooOOOOoooOOOoooOOOXXOOOoooOOOOOOOoooOOOOOooO",
"OOOOOooOOOOooOOOOooOOOOooooOOOOoo ++++..........  OoooOoooOOOOXXoOOooooOOOXXOOOOoooOOOOOOooOOOOOoXXO",
"OOOOOooOOOOooOOOOOOOOOooooOOOOooo ++........    OOOOXXOOooOOOOXXoOOoooOOOOOOOOOOOoooOOOOoooOOOOooXXO",
"OOOOOOOOOOOoooOOOOOOXXoooOOOOXXoo  ........ OOOOOOOOXXOOOOOOOOOooOOOOOOOOOOOOOOOOoooOOOOooOOOOooooOO",
"OOooOOOOOOOooooOOOOOXXoOOOOOOXXo ## .....  oOOOOOOOOooOOOOOOOOOooOOOOOOOOoooOOOOOOooOOOOooOOOooooOOO",
"OOoooOOOXXOOooXXOOOOOooOOOOOooo #### ..  oooOOOooOOOooOOOOOOOooooOOOOOOOOooooooOOOOOOOOoooOOOoooOOOO",
"OOOoooOOXXOOOoXXOOOOoooOOOOOoo ####@@  ooooOOOOooOOOoooOOOOOOoooOOOOOOOOOOOoooooOOOOOOoooOOOOOOOOOOO",
"OOOoooOOOOOOOoooOOOOoooOOOOOO ####@@ OoooOOOOOOooOOOoooOOOOOoooOOOOooOOOOOOOOOoooOOOOoooOOOOOOOOooOO",
"OOXXooOOooOOOoooOOOOooOOOOOO ####@@ OOooOOXXXOOooOOOOooOOOOOooOOOOoooOOOOOOOOOoooOOOOoooOOOOOOOOooOO",
"OOXXoOOOooOOoooOOOOOOOOOOOO ####@@ OOOooOOXXXOOooOOOOooOOOOXXoOOOooooOOOOOooOOOooOOOOOOOOOOOooooooOO",
"OOOooOOOooOOooOOXXOOOOOooO ####@@ OOOOooOOXXXOOooOOOOooOOOoXXOOOoooOOOOOooooOOOooOOOOOOOOOoooooooOOO",
"OOOooOOOooOOOOOOXXOOOO    ####@@ oOOOOOOOXXOOOOoooOOOOOOOooooOOoooOOOOOooooOOOOooOOOOOOOOOoooOOOOOOO",
"OOOOOOOXXoOOOOOOOOooo #######@@ oooOOOOOOXXOOOOoooOOOOOOooooOOOooOOOOooooOOOOOOooOOOOOOOOOooOOOOOOOO",
"OOOOOOoXXoOOOOOOOooo #######@@ OooooOOOOOOOOOOOOoooOOOOOooOOOOoooOOOooooOOOXXOOOOOOOOOooOOooOOOOOOOO",
"OOOOOooooOOOOOOOooo #######@@ OOOooooOOOOOoooOOOOooOOOOoooOOOOooOOOoooOOOOXXXOOOOOOOOOooOOooOOOOooOO",
"OOXXooooOOOOOOOooo ########@ OOOOOOooOOOOooooOOOOOOOOOOooOOOOOooOOOooOOOOOXXXOOOOOOoooooOOOOOOOOooOO",
"OOXXoooOOOOOOOOooO #######@@ OOOOOOoooOOOoooOOOOOOOOOOOXXOOOOOOOOOoooOOOOOOOOooooooXXoooOOOOOOOoooOO",
"OooooOOOOOOooXXooOO  ####@@@ oOOOOOXXoOOOooOOOOOOOOOOOOXXOOOOOOOOOooOOOOOOOOOooooooXXOOOOOOOOOoooOOO",
"OoooOOOOOOOooXXooOOO ###@@@ oooOOOOXXooOOoooOOOOOOOOOOOOOOOOOOooooooOOOOoooOOOOOOOOOOOOOOOOOOOXXoOOO",
"OoooOOooOOOOOOOOOOOOO  @@@ OoooOOOOOOooOOOoooOOOOOXXoOOOOOOoooooXXoOOOOOooooOOOOOOOOOoooOOOOOoXXOOOO",
"OoooOOooOOOOOOOOOooOOO @@ OOOoooOOOOoooOOOOoooOOOOXXoOOOOOOooooOXXOOOOOOOoooooOOOOOOOoooOOOOOoooOOOO",
"OOooOOooooOOOOOOOooOOOX  OOOOoXXOOOOoooOOOOOooOOOOooOOOOOOOOOOOOOOOOOOOOOOooooOOOOOOOooOOOOOOooOOOOo",
"OOooOOoooXXoOOOOOooOOOXXOOOOOOXXOOOOooOOOOOXXoOOOOooOOOOOOOOOOOOOOOooOOOOOOOOOOOOOOOoooOOOOOOooOOooo",
"OOooOOOOOXXoooOOOOOOOOooOOOOOoooOOOOooOOOOOXXoOOOOooOOOooOOOOOOOOOOooOOOOOOOOOoooooooooOOXXOOooOOooo",
"OOOOOOOOOOOooooOOOOOooooOOOOOoooOOOoooOOOOOOoooOOOooOOOoooOOOoooOOOooOOOooOOOOoXXooooOOOOXXOOooOOooO",
"OOOOOOOOOOOOoooOOOoooooOOOOOOooOOOOoooOooOOOoooOOOooOOOOoXXOOoooOOOoXXOOooOOOOOXXOOOOOOOOOOOOooOOooO",
"OOOOOOOOOOOOOooOOOoooOOOooOOOoooOOOooOOooOOOooOOOoooOOOOoXXOOOooOOOoXXoOoooooOOOOOOOOoooOOOOOooOOooO",
"OOOOoooOOOOOOOOOOOooOOOOoooOOOooOOOOOOOooOOOooOOOoooOOOOooOOOOoooOOOooooOooooooOOOOOOoooooOOOooOOOOO",
"OOOOoooOOOXXOOOOOOooOOOOOoooOOoooOOOOOOooOOOOOOOOXXOOOOOooOOOOooooOOOOooOOOOooooOOOOOOOooooOOOOOOOOO",
"OOOOooOOOOXXOOOOOoooOOOOOOoooOOooOOXXOOooOOOOOOOOXXOOOOoooOOOOOoooOOOOoooOOOOoooOOOOOOOOOoooOOOOOOoo",
"OOOOooOOOOOOOOOOooooOOOOOOOooOOooOOXXOOooOOOOOOOOOOOOOOXXOOOOOOOoooOOOOoooOOOOoooOOOOOOOOooooOOOOooo",
"OOOOXXOOOOOooOOOoooOOooOOOOooOOOOOOXXOOooOOOOOOOOOOOOOOXXOOOooOOOoXXOOOoooOOOOOooOOOOooOOOoooOOOOooo",
"OOOOXXOOOOOooOOOOOOOOooOOOOXXOOOOOOOOOoooOOOOOOOOOOOOOOOOOOOooOOOoXXOOOOooXXOOOXXOOOOooOOOOooOOOOooO",
"OOOOooOOOOOooOOOOOOOOooOOOOXXOOOOoooOoooOOOOOXXoOOOOOOOOOOOoooOOOooOOOOOOoXXOOOXXOOOOooOOOOOOOOOoooO",
"OOOOooOXXOOooOooOOOOoooOOOOoooOOOoooOoooOOOOOXXoOOooOOOOOOOoooOOOOOOOOOOOooOOOOooOOOOooOOOOOOOOOoooO",
"OOOOooOXXOOXXOooOOOOooOOOOOoooOOOOooOOOOOOOOOoooOOoXXOOOOOOooOOOOOOOOOOOOooOOOoooOOXXooOOOOOOOXXooOO",
"OOOoooOOOOOXXOooOOOOXXOOOOOOoooOOOooOOOOOOOOOOooOOoXXOOOOOOooOOOOOOOOXXOOoooOOoooOOXXooOOooOOOXXoOOO",
"OOOoooOOOOOooOooOOOOXXOOOOOOoooOOOooOOOOoooOOOooOOOooOOOOOooXXOOOOOOOXXOOOooOOooOOOOooOOOooOOOOooOOO",
"OOOooOOOooOooOoooOOoooOOOOOOOooOOOXXOOOooooOOoooOOOooOOOOOooXXOOOooOOXXXOOooOOOOOOooooOOOooOOOOooOOO",
"OOOOOOOOooOOOOoooOOooOOOOooOOoooOOXXOOOoooOOOooOOOOoooOOOOoooOOOOoooOOXXOOooOOOOOooooOOOOoooOOoooOoo",
"OooOOOOOooOOOOoXXOOooOOOoooOOoooOOooOOOooOOOoooOOOOOooOOOoooOOOOOoooOOOOOOoooOOOoooOOOOOOOooOOooOooo",
"OooOooOOXXoOOOoXXOOooOOOooOOOOooOOooOOOooOOOoooOOOOOooOOOoooOOOOooooOOOOOOOooOOoooOOOOOOOOooOOooOooO",
"OooOooOOXXoOOOoooOOooOOOooOOOOOOOOooOOOooOOOooOOOOOOOOOOOooOOOOOoooOOOOOOOOooOOooOOOOOOOOOooOOooOooO"
};
