/* XPM */
static char *_247765644124a9aa34683bafa886b7eLN4GGybczMFClFcM[] = {
/* columns rows colors chars-per-pixel */
"100 100 13 1 ",
"  c black",
". c #1C1C18",
"X c #1C2F10",
"o c #233A13",
"O c #34301A",
"+ c #222422",
"@ c #3C3A2C",
"# c #333432",
"$ c #375C1C",
"% c #474022",
"& c #4F4C38",
"* c #7A754E",
"= c #46D42D",
/* pixels */
"                                                                                                    ",
" $$$$$$$$$$$$$$$$$$$$$$$$$$$$$$$$$$$$$$$$$  $$$$$$$$$ $$$$$$$$$$$$$$$$$$$$$$$$$$$$$$$$$$$$$$$$$$$$$ ",
" $$$$$$$$$$$$$$$$$$$$$$$$$$$$$$$$$$$$$$$$ $$$$$$$$$$$ $$$$$$$$$$$$$$$$$$$$$$$$$$$$$$$$$$$$$$$$$$$$$ ",
" $$$$$$$$$$$$$$$$$$$$$$$$$$$$$$$$$$$$$$$ $$$$$$$$$$$$ $$$$$$$$$$$$$$$$$$$$$$$$$$$$$$$$$$$$$$$$ $$$$ ",
" $$$$$$$$$$$$$$$$$$$$$$$$$$$$$$$$$$$$$$  $$$$$$$$$$$$ $$$$$$$$$$$$$ $$$$$$$$$$$    $$$$$$$$$$ $$$$$ ",
" $$$$$$$$$ $$$$$$$ $$$$$$$$$$ $$$$$$$$$ $$$$$$$ $$$$$ $$$$$$$$$$$$$  $$$$$$$$$$$$$$  $$$$$$$$ $$$$$ ",
" $$$$$$$$$ $$$$$$$ $$$$$$$$$  $$$$$$$$  $$$$$$  $$$$$$ $$$$$$$$$$$$$  $$$$$$$$$$$$$$$$$$$$$$$ $$$$$ ",
" $$$$$$$$$ $$$$$$$$$$$$$$$  $$$$$$$$$$ $$$$$$$ $$$$$$$  $$$$$$$$$$$$$   $$$$$$$$$$$$$$$$$$$$$ $$$$$ ",
" $$$$$$$$$ $$$$$$$$$$$$$  $$$$$$$$$$$$ $$$$$$$$$$$$$$$$  $$$$$$$$$$$$$$  $$$$$$$$$$$$$$$$$$$$$$$$$$ ",
" $$$$$$$$ $$$$$$$$$$$$$ $$$$$$$$$$$$$$ $$$$$$$$$$$$$$$$$ $$$$$$$$$$$$$$$$$$$$$$$$$$$$$$$$$$$$$$$$$$ ",
" $$$$$$$$$$$$$$$$$$$$$$$$$$$$$$$$$$$$  $$$$$$$$$$$$$$     $$$$$$$$$$$$$$$$$$$$$$$$$$$$$$ $$$$$$$$$$ ",
" $$$$$$$$$$$$$$$$$$$$$$$$$$$$$$$$$$$ $$$$$$$$$$$     %%XX   $$$$$$$$$$$$$$$$$$$$$ $     $$$$$$$$$$$ ",
" $$$$$$$$$$$$$$$$$$$$$$$$$$$$$$$$$$ $$$$$$$$    %%XX%%%%%%X  $$$$$$$$$$$$$$$$$$$$  $$$$$$$$$$$$$$$$ ",
" $$$$$$$$$$$$$$$$$$$$$$$$$$$$$$$$           X%%X%%%%%%%%%%XX  $$$$$$$$$$$$$$$$$$$$$$$$$$$$$$$$$$$$$ ",
"  $$$$$$$$$$$$$$$$$$$$$          OOOXX%%XXXXX%%XX%%%%%%XXXX%%  $$$$$$$$$$$$$$$$$$$$$$$$$$$$$$$$$$$$ ",
"O  $$$$$$$$$$$$$$$$$   %%%%XXXOOOOOOXX%%%XXXX%%%XX%%%%XXX%%%%X   $$$$$$$$$$$$$$$$$$$$$$$$$$$$$$$$$$ ",
"OO%%     $$$$$$       %%%%XXXXOOOOOOXX%%%%%XX%%%XXXX%%X%%%%%XXXXO  $$$$$$$$$$$$$$$$$$$$$$$$$$$$$$$$ ",
"OO%%%XXXX       %%XXX%%%%XXXXXOOOOOOXXXX%%%%%%%%XXXX%%%%%%%XXXXXOOO     $$$$$$$$$$$$$$$$$$$$$$$$$$$ ",
"OO%%%%%XX%%%XXXX%%%XX%%%XXXXXXOOOOOOXXXXXX%%%%%%%%%%%%%%%XXXXXXXOOOOOOOX     $$$$$$$$$$$$$$$$$$$$$$ ",
"OOO%%%%%X%%%%XXX%%%X%%%XXXXXXXOOOOOXXXXXXXXX%%%%%%%%%%%XXXXXXXXXXOOOOOXXXXXXX      $$$$$$$$$$$$$$$$ ",
"OOOOX%%%XX%%%%X%%%%%%%XXXXXXXXOOOOOXXXXXXXXXXX%%%%%%%%XXXXXXXXXXXOOOOXXXXXXXXO%%OO     $$$$$$$$$$$$ ",
"OOOOXX%%%%%%%%%%%%%%%XXXXXXXXXOOOOOXXXXXXXXXXX%%%%%%%%XXXXXXXXXXXXOOOXXXXXXXXO%%%OOOXX      $$$$$$  ",
"OOOXXXX%%%%%%%%%%%%%XXXXXXXXXXOOOOOXXXXXXXXXXX%%%%%%%%XXXXXXXXXXXXOOOXXXXXXXXOO%%%%XXXX%%%          ",
"OOOXXXXXX%%%%%%%%%%%XXXXXXXXXXXO                                    OXXXXXXXXXOO%%%%XXXX%%%XX %%    ",
"OOOXXXXXX%%%%%%%%%%XXXXXXXXXXX    ################################    XXXXXXXXOOO%%%%%%X%%%%XX%%%XXX",
"OOXXXXXXX%%%%%%%%%%%XXXXXXXX   ######################################   XXXXXXOOOOO%%%%%%%%%XXX%%XXX",
"OOXXXXXXX%%%%%%%%%%%XXXXXXX  ##########################################  XXXXXOOOOOXXX%%%%%%%XX%%%XX",
"OOXXXXXXX%%%%%%%%%%%XXXXXX  ############################################  XXXXOOOOOXXXXXXX%%%%XX%%XX",
"OXXXXXXXX%%%%%%%%%%%XXXXX  ########..####################################  XXXXOOOOXXXXXXXX%%%%X%%XX",
"OXXXXXXXX%%%%%%%%%%%XXXX  ########..##########################o$$$$$$#####  XXXOOOOXXXXXXXXX%%%%%%XX",
"OXXXXXXXX%%%%%%%%%%XXXX  ###########..#############.##########oooooo$$#####  XXOOOXXXXXXXXXX%%%%%%XX",
"OXXXXXXXX%%%%%%%%%%XXX  #############.##############.##########oo##ooo$$$###  XOOOXXXXXXXXXX%%%%%%XX",
"OXXXXXXXX%%%%%%%%%XXX  ##############.###############....############ooo$$o##  OOOXXXXXXXXXXX%%%%%%X",
"OXXXXXXXX%%%%%%%%%XX  ################.##################....###########ooo###  OOXXXXXXXXXXX%%%%%%X",
"OXXXXXXXX%%%%%%%%%X  #######oooo#####.#######################..##########oo####  OOXXXXXXXXXXX%%%%%X",
"OXXXXXXXX%%%%%%%%%X #######$$$oo#####.########################.################# OOXXXXXXXXXXX%%%%%%",
"OXXXXXXX%%%%%%%%%% ######o$$oo#######.##########o$o###########.################## OXXXXXXXXXXX%%%%%%",
"OXXXXXXX%%%%%%%%%  #####$$$ooo#######.##########oo$$$o########..#################  XXXXXXXXXXXX%%%%%",
"OXXXXXX%%%%%%%%%  ####o$$oo##########.###########ooo$$$$$o#####.##################  XXXXXXXXXXX%%%%%",
"OXXXXXX%%%%%%%%% #####oooo##########################oooo$$$o####.################## XXXXXXXXXXXX%%%%",
"OXXXXXX%%%%%%%% #########################################o$o#####.################## XXXXXXXXXXX%%%%",
"OXXXXXX%%%%%%% ############################++++++++++++###oo######..################# XXXXXXXXXX%%%%",
"OXXXXXXX%%%%%  #########.###############+++++++++++++++++++##########################  XXXXXXXXXX%%%",
"OXXXXXXX%%%%  #########..#############++++++++++++++++++++++++###################.####  XXXXXXXXX%%%",
"OXXXXXXX%%%% #########..############++++++++++++++++++++++++++++##########oo#####.#####  XXXXXXXX%%%",
"OXXXXXXX%%  ##########.###########++++++++++            +++++++++#########o$#####.######  XXXXXXX%%%",
"OXXXXXXX%% ##########..#########++++++++++                ++++++++#######oo$#####.####### XXXXXXX%%%",
"OXXXXXXX% ###########.#########+++++++++                    ++++++++#####oo$######.####### XXXXXX%%%",
"OXXXXXXX% ##########.#########+++++++++                      ++++++++#####o$$#####.####### XXXXXX%%%",
"OXXXXXXX% #########.#########+++++++++                        ++++++++####oo$#####.####### XXXXXX%%%",
"OXXXXXXX% #########.#######++++++++++                          ++++++++###oo$#####.####### XXXXXX%%%",
"OXXXXXXX  ########..#######++++++++                              ++++++####o$#####.#######  XXXXX%%%",
"XXXXXXXX #######...#######++++++++                                ++++++###o$#####.######## XXXXX%%%",
"XXXXXXXX ######.##########+++++++                                  ++++++#########.######## XXXXX%%%",
"XXXXXXXX ################+++++++                                    ++++++#######.######### XXXXX%%%",
"XXXXXXX  #.#############++++++++                                    ++++++#######.#########  XXX%%%%",
"XXXXXXX ##.####$$#######+++++++                                      ++++++######..######### XXX%%%%",
"XXXXXXX ##.####$o######+++++++                                        +++++#######.######### XXX%%%%",
"XXXXXX ###.####$o######+++++++                                        ++++++################# X%%%%%",
"XXXXXX ###.####$o#####+++++++                                          +++++################# X%%%%%",
"XXXXX  ###.####$o#####+++++++                                          ++++++################  %%%%%",
"XXXXX ####..##$$o####++++++++                                          ++++++################# %%%%%",
"XXXX  ####..##ooo####+++++++                                            ++++++##########o$####  %%%%",
"XXX  ######.##oo#####+++++++                                            ++++++##########o$$o###  %%%",
"XX  #######.########++++++++                                            +++++++##########oo$$$##  %%",
"X  #########.######++++++++                                              ++++++############oo$$$#  %",
"  ##########.######++++++++                                              ++++++######.######oooo##  ",
"###o$$$$$###.######++++++++                                              ++++++####..#...###########",
"##$$$o$oo###.######++++++++                                              +++++++########.....#######",
"=#ooo##oo###.#####++++++++                                                ++++++###################=",
"==oo########.#####++++++++                                                ++++++##################==",
"===###############+++++++                                                  ++++++################===",
"====#############++++++++                                                  ++++++###############==$=",
"$$==$###########+++++++++                                                  +++++++#############==$$=",
"====$=##########++++++++                                                    +++++++###########===$=$",
"=$$=====#######++++++                                                          ++++++#######=====$=$",
"=$$======#####++++++  @                                                      @  ++++++#####=====$===",
"=$=$=$=$======++++++@@@                                                      @@@++++++=========$$$==",
"====$==$$========***@@@@@                                                  @@@@@***====$=====$$=$$==",
"=$====$==$$$$$===*****@@@@                                                @@@@*****====$====$$==$$==",
"=$====$=$==$==$==******@@@@@                                            @@@@@******=$$=$=$$$$$==$===",
"========$=$===$===******@@@@@@@@                                    @@@@@@@@******====$$$$==$==$====",
"=======$=========*********@@@@@@@@                                @@@@@@@@*********=========$==$====",
"==$$$$$$$=$======*************@@@@@@@@                        @@@@@@@@*************======$===$$=====",
"===========$====****************@@@@@@@@@                  @@@@@@@@@******&@********=====$====$=====",
"=$$$==========**********************@@@@@@                @@@@@@******&&&@@@**********===$$==$$$====",
"==$$===$==$==**************************@@@@@@          @@@@@@********&@@@@*************=$$$=$===$$$=",
"===$=$==$=$==***************************@@@@@@        @@@@@@*********@@****************=$$==========",
"===$==$=$=$==******************************@@@@@@@@@@@@@@******************************=$=====$==$==",
"$$===$=$$$$==*************&&&&&*************@@@@@@@@@@@@*******************************=====$=$==$$=",
"====$$====$==*************&&&&&&*******************************************************===$=======$=",
"=$=$$========*************@&&&&&&&*****************************************************=$==$========",
"====$$$==$===*************@@@@&&&******************************************************=$==$====$=$=",
"==$$==$$=====****************@@&&******************************************************=$===$$==$===",
"====$$$======**************************************************************************======$===$==",
"=======$$$==*****************************&&&&*******************************************=======$====",
"===$=$======******&&********************@@@&&&&*******************&*********************=======$$===",
"===$=$$==********&&&&**********************@@@@@**************&&&&&&***********************=====$$$=",
"=======*********&&&&&***************************************&&&&&&&&&&&**********************=======",
"======*********&@@@@&***************************************@@@@@@@@@@@***********************======"
};
