/* XPM */
static char *_0d3b80debe847a086019ab7ff8fb882eNj0yy7mr1ohZKcB[] = {
/* columns rows colors chars-per-pixel */
"100 100 3 1 ",
"  c #329C1F",
". c #3DB428",
"X c #46D42D",
/* pixels */
"XX...XXXXXXXX...XXXXX...XXX..XXXXXXXX...XXXXX.......XXX..XXXXXXXX..XXXXXXXX....XX..XXXXXXXX..XXX...X",
"XXX..XXXXXXXX..XXXXXXX..XXX..XXXXXXXXX..XXXXX.....XXXXX....XXXXXX..XXXXXXXXX...XX...XXXXXX...XXX...X",
"XXXXXXX...XXXXXXXXXXXXXXXX...XX   XXXXXXXXXXXXXXXXXXXXX......XXXX...XXX..XXXXXXXX...XXXXX  ..XX...XX",
"X   XXX...XXXXXXX..XXXXXXX...XX   XX..XXXXX..XXXXXXXXX  XX...XXXXX..XXX..XXXXXXXXX..XXXXX  .XXX...XX",
"X   XXX..XXXXXXX...XX  XX...XXX  XX...XXXXX..XXXXXXXXX   XXXXXXXXX..XX...XXXXXXXXXXXXX......XXX  XXX",
"XX  XXX..XXXXX.....X   XX...XXXXXXX...XXXX  .XXXX..XXX   XX...XXXXXXX...XXXX..XXXXXXXX.....XXX.  XXX",
"XXXXXXX.  XXXX...XXX  XXXXXXXXXXX  ..XXXX.  .XXXX..XXXXXXXX....XXXXX....XXX...XXXX..XXXXXXXXXX...XXX",
"XXXXXXX.  XXXX.  XXXXXXXXXXXXXXX.  ..XXX....XXXX...XXXXXXXXX...XXXX...XXXXX..XXXXX..XXXXXXXXXX..XXXX",
"X..XXXX...XXXX.  XXXXXXX..XXXXXX....XXX....XXXX....XXXXXXXXXX...XXX  XXXXX...XXXXX..XXXXXXXXXXXXXXX.",
"X..XXXXX..XXX...XXXXX.....XXXXXXXXXXXXX...XXXX....XXXXXXX..XXX..XXX  XXXXX...XXXX  .XXXX....XXXXXX..",
"X...XXXX..XXX...XXXX.....XXXXXXXXXXXXXX..XXXXX..XXXXXXX....XX  .XXX..XXXX...XXXXX  ..XXX....  XXXX..",
"XX..XXXX..XXX..XXXX  .XXXXXXXXXXXXXXXXXXXXXX....XXXXXX....XXX  .XXX..XXXX...XXXXXX...XXXXXX.  XXX...",
"XX  .XXX..XXXXXXXX.  .XXXXXXX...XXXX...XXXXX...XXXXX....XXXXXX..XXX..XXXX..XXX  XXX..XXXXXXX...XX..X",
"XX  .XXX..XXXXXXXX...XXXXXXX....XXXX....XXX...XXXXX.  .XXXXXXX...XXXXXXXXXXXXX   XX...XXXXXXX..XX..X",
"XXX..XXXXXXX...XX...XXXXXX.....XXXXXXX...X  .XXXXX..  XXXXXXXXX..XXXXXXXXXXXXX   XXX...XXXXXX..XXXXX",
"XXX..XXXXXX....XX...XXXXX....XXXXXXXXX...X  .XXXXX..XXXXXXXXXXX..XXX.  XXXXX..X  XXX..  XXXXX..XXXXX",
"XXX..XXXX.  ..XXX...XXXXX...XXX  XXXXXXXXXX...XXXX..XXXX..XXXXX..XXX.  XXXXX..XXXXXXX.  ..XXX..XXXXX",
"XXX..XXX..  .XXXXX...XXX  .XXXX  XX...XXXXXX..XXXX..XXX...XXXXXXXX....XXXXXX..XXXXXXXX....XX...XXXXX",
"XXXXXXX....XXXXXXX...XXX  .XXXX  XX...XXXXXX...XXX..XXX...XXXXXX.....XXX..XX.  X..XXXXXX..XX..XXXXXX",
"XXXXXX....XXXXXX  XXXXXXX..XXXXXXXXX..XXXXXXX..XXX  .XX....XXXXX....XXXX..XX.  X...XXXXXXXXX..XXXX..",
"XXXXX....XXXXXXX   XXXXX...XXX..XXXX..  XXXXX..XXX  .XXX....XXXX..XXXXX...XX..XX...XXXXXXXXX..XXX  .",
"XXXXX...XXXXX..XX  XXX.....XXX...XXX..  XXXXX..XXXX...XXXX  XXX  .XXXX...XX...XXX..XXXX..XXX..XXX  .",
"XXXX...XXXXXX..XXXXX......XXXX...XXXX..XXXXXXXXXXXXX..XXXX  XXX  .XXX...XXX..XXXX..XXXX...XX..XXX..X",
"XXX..  XXXXXX..XXXXX...XXXXXXXX..XXXX....XXXXXXXXXX...XXX...XXX...XX...XXX...XXXX..XXXX...XXXXXX...X",
"XX...  XXXX....XXXXXXXXXXXXXXXXXXXXXXX...XXXXXXXXX....XXX...XXX..XX  .XXX....XXXXXXXXXXX...XXXXX..XX",
"X...XXXXX.....XXXXXXXXXXXXXX..XXXXXXXX...XXXX..  ....XXXX..XXX...XX  .XXX...XXXXXXXXXXXX...XXXXX..XX",
"X..XXXXXX...XXXXXXXXXXXXXXXX...XXXXXXXXXXXXXX..  ..XXXXXXXXXXX..XXXX..XX...XXXXXXXX..XXXX  XXXX...XX",
"XXXXXXXX...XXXXXXXX..XX   XX.....XX   XXXXXXXXXXXXXXXXXXXXXXXX..XXXX..XX...XXXXXXXX..XXXX  XXXX..XXX",
"XXXXXXXX..XXXXXXXX...XX   XXXX...XX   XXXXXXXXXXXXXXXXXXXXXXXX..XXX...XX..XXX..XXXX..XXXX....XXXXXXX",
"XXXXXXXX..XXXXXXXX..XX   XXXXXX...XXXXXXXXXXXXXXXXXXXXXX..XXXXXXXXX..XXXXXXX...XXXX..XXXXX...XXXXXXX",
"XX..XXXX..XXXXXXX...XX   XXXXXX...XXXXX........XXXXXXX....XXXXXXXXX..XXXXXXX...XXXX..XXXXXX...XXXXXX",
"XX...XXXXX..XXXXX..XX   XX..XXX..XXXXX.........XXXXXXX...XXXXXXXXXX  XXXXXX...XXXX...XX  XX...XXXXX.",
"XXX...XXXX..XXXXX..XX  XX...XXX...XXXX...XXXXXXXXXXX....XXXXXXXXXX.  XXXXXX...XXX...XXX   XX..XXXX..",
"XXXX..XXXX..XXXXX..XXXXXX..XXXXX..XXXX..XX  XXXXXXX....XXX...XXXX...XXXXXX...XXXX...XXX   XXXXXXXX..",
"XXXX..XXXX..XXXX...XXXXXX..XXXXX..XXX...XX   XXXXX...XXXXX...XX.....XXXXX...XXXX...XXXXX  XXXXXXX...",
"XXXX...XXX..XXXX..XXXXXXX..XXXXXXXXXX...XXX   XXX...XXXXXX...XX....XXXXXX...XXXX...XXXX..XXXXXXXX..X",
"XXXXX..XXX..XXXX..XXXXXX...XXXXXXXXXX..XXXX   XX...XXXXXX  .XXXXXXXXXXXX...XXXXXXXXXXXX...XXXXXX...X",
"XXXXX..XXX..XXXX..XXXXXX..XXXXXXX......XXXXXXXX...XXXXXXX  .XXXXXXXXXXXX..XXXXXXXXXXXXX....XXXX...XX",
"XXXXX  .XX..XXX.  XXXXX...XXXXXXX.....XXXXXXXXX.  XXXXXXX..XXXXXXXXXXXXXXXXXXXXXXX..XXXXX...XXX..XXX",
"XXXXX  .XX..XXX.  XXXX...XXX   XXXXXXXXX..XXXXX.  XXXXXXX...XXXXXXX...XXXXXX  XXXX..XXXXXX..XXX...XX",
"XXX..X...XXXXX...XXXXX...XX    XXXXXXXXX...XXXXX...XXXXXXX..XXXXXXX....XXXXX  XXXX..XXXXXX...XX..  X",
"XXX..XX..XXXX....XXXX...XX    XXXXXXXXXXX..XXXXX.....XXXXX....XXXXXX..  XXXXXXXXX...XXXXXXX..XXX.  X",
"XXX..XX..XXXX...XXXXX..XXX   XX...X   XXX...XXXXXX....XXXXX...XXXXXXX.  XXXXXXX....XXXXXXXX..XXX...X",
"XXX..XX..XXXXXXXXXXXX..XXX   XX...X    XXX...XXXXXX...XXXXXXXXXX..XXX...XXXX.......XX..XXXX...XXXXXX",
"XXX..XXXXXXXXXXXXXXXX...XXXXXXXX..XX   XXXX...XXXXXXXXX  XXXXXXX..XXXX..XXX.....XXXXX..XXXX...XXXXXX",
"XXX.  XXXXXXXXXXX  XXX..XXXXXXX...XXXXXXXXX...XXXXXXXXX  XXXXXXX..XXX...XXX...XXXXXXX..XXXXX...XXXXX",
"XXX.  XXXXXX..XXX   XX...XXXXXX...XXXXX..XXX  ......XXX  XX...XX...XX...XXX..XXXXXXXX..XXXXXX..XXXXX",
"XXX..XXX..XX..XXXX  XXX..XXXXXX...XXXXX..XXX  .......XXXXXX...XX...XXXXXXXXXXXXXXXXXX..XXXXXX...XXXX",
"XXX..XXX..XX...XXXXXXXXXXXXXXXXX..XXXXX...XXXXXXXXX...XXXXXX..XXX  XXXXXX...XXXXXXXXX  X   XXX..XXXX",
"XXX..XX...XX....XXXXXXXX..XXXXXX...XXXX.....XXXXXXX...XXXXXX..XXX  .XXXXX...XXX..XXXX  X    XX...XXX",
"XX...XX...XXX...XXXXX.....XXXX  X...XXXXX....XXXXXXX..XXXXXX..XXXX...XXXXX..XXX..XXXX..XX    XX..XXX",
"XX...X  .XXXXX...XXX......XXX   XX....XXXXX..XX  XXXXXXXXXX...XXXXX..XXX  ..XXX..XXXX..XXX   XX..XX.",
"XX..XX  .XXXXXX...XX...XXXXXX   XXX....XXXXXXXX  XXXXXXXX  ...XXXXX..XXX  .XXXX..XXXX..XXXXXXXXXXXX.",
"XXXXXX...XXXXXX...XXXXXXXXXXX  XXXXXX..XXXXXXXX  XXXXXXX.  .XXXXXXXXXXX....XXXX..XXXX..XXXXXXXXXXX..",
"XXXXX....XXXXXXX  XXXXXXX..XXXXXXXXXXXXXXXXXXXXXX..XXXX...XXXXXXXXXXXX....XXXXX..XXXX...XXX..XXXXX..",
"XXXXX..XXX..XXXX  XXXXXXX..XXXXX..XXXXXXXXX..XXXX...XXX..XXXXX..XXXXX....X   XX..XXXX...XX...XXXX...",
"X  XX..XXX...XXX...XXXXXX..XXXX...XXXXXXXXX..XXXXX..XXX..XXXXX...XXXX...XX   XX...XXXXXXXX..XXXXX..X",
"X  XX..XXX...XXX...XXXXX...XXXX...XXX...XXX..XXXXX...XX...XXXX...XXX...XXX  XXX...XXXXXXX...XXXXX..X",
"XXXXX..XXXX..XXXX..XXXX....XXXX..XXXX...XXX..XXXXXX...X...XXXX  .XX....XXX  XXXX...XXXXXX..XXXXX.  X",
"XXXXX..XXXX..XXXXXXXXX....XXXX...XXXX..XXX...XXXXXXX  XX..XXXX  .XX...XXXXXXXXXXX...XXXX...XXXX..  X",
"XXXXXXXXXXX...XXXXXX  ...XXXX  ..XXXX..XXX..XXXXXXXX  XXXXXXXXX..XXXXXXXXXXXXXXXX...XXXX..XXXX....XX",
"XX..XXXXXXX....XXXXX  .XXXXXX  .XXXXXXXXX...XXXXXXXX..XXXXXXXXX..XXXXXXXX...XXXXXX..XXXX..XXX....XXX",
"XX...XXX  XX..  XXXXX..XXXXX...XXXXXXXXX....XXX..XXX..XXXXXXX....XXXXXXXX......XXXXXXXX...XXX...XXXX",
"XXX...XX  XXX.  XXXX...XXXXX...XXXXXXX.....XXXX..XXX...XXXXXX...XXXXXXXXXXX.....XXXXXX...XXXXXXXXXXX",
"XXX...XXXXXXX...XXXX...XXXXXXXXXXXXXXX...XXXXXX..XXX...XXXXX...XXXX..XXXXXXXXX...XXXX...XXXXXXXX..XX",
"XX  ..XX..XXX...XXXX..XXXXXXXXXXXXXXXX..XX   XX..XXXX..XXXXX..XXXX...XXXXXXXXX...XXXX...XXXXXXXX..XX",
"XX  .XXX..XX...XXXXXXXXXXXXXXXXXXXXXXX..XX   XX..XXXX..XXXX  .XXX....XXXXX..XXX..XXXXXXXXXXX......XX",
"XXX..XXX..XX..XX  XXXXX..XXX  XX..XXXX..XX   XX..XXXX..XXX.  XXX...XXXXX....XXX..XXXXXXXXX.......XXX",
"XXX..XXX..XXXXXX  XXXXX..XXX  XX..XXXXXXX  XXXX...XXXXXXX....XX...XXXXX....XXXX..XXXXXXXXX...XXXXXXX",
"XXXXXXX  .XXXXXXXX.......XXXXXXX...XXXXXX  XXXX...XXXXXX....XXX..XXXX....XXXXXX..XXXXXXXXX..XXXXXXXX",
"XXXXXX.  .XXXXXXX.......XXXXXXXX....XXXXXXXXXXXX...XXXXX..XXXX...XXX....XXX  XXXXXXXXX..XX..XXXXXXXX",
"XXXXX....XXXXXXX...XXXXXXXX..XXXX....XXXXX...XXXX..XXXX...XXXX..XXX...XXXX   XXXXXXXXX..XX..XXXX..XX",
"XX  ....XXXXXXX...XXXXXXXXX..XXXXXX..XXXX....XXXXXXXXXX..XXXXX..XXX..XXXXX   XXXXXX.....XXXXXXXX..XX",
"XX  ...XXXXXXXX..XXXXXXXXXX..XXXXXX...XXX...XXXXXXXXXXX  XXXXXXXXX...XXXXXXXX......  ...XXXXXXX...XX",
"X....XXXXXX..  ..XXXXXXXXXX...XXXXX  .XXX..XXXXXXXXXXXX  XXXXXXXXX..XXXXXXXXX......  XXXXXXXXX...XXX",
"X...XXXXXXX..  ..XXXXX..XXXX...XXXX  ..XX...XXXXXXXXXXXXXXXXXX......XXXX...XXXXXXXXXXXXXXXXXXX  .XXX",
"X...XX..XXXXXXXXXXXXXX..XXXX...XXXXXX..XXX...XXXXX  .XXXXXX.....  .XXXXX....XXXXXXXXX...XXXXX.  XXXX",
"X...XX..XXXXXXXXX..XXX..XXXXX...XXXX...XXXX...XXXX  .XXXXXX....X  XXXXXXX.....XXXXXXX...XXXXX...XXXX",
"XX..XX....XXXXXXX..XXX  XXXXX.  XXXX...XXXXX..XXXX..XXXXXXXXXXXXXXXXXXXXXX....XXXXXXX..XXXXXX..XXXX.",
"XX..XX...  .XXXXX..XXX  XXXXXX  XXXX..XXXXX  .XXXX..XXXXXXXXXXXXXXX..XXXXXXXXXXXXXXX...XXXXXX..XX...",
"XX..XXXXX  ...XXXXXXXX..XXXXX...XXXX..XXXXX  .XXXX..XXX..XXXXXXXXXX..XXXXXXXXX.........XX  XX..XX...",
"XXXXXXXXXXX....XXXXX....XXXXX...XXX...XXXXXX...XXX..XXX...XXX...XXX..XXX..XXXX.  ....XXXX  XX..XX..X",
"XXXXXXXXXXXX...XXX.....XXXXXX..XXXX...X..XXX...XXX..XXXX.  XX...XXX.  XX..XXXXX  XXXXXXXXXXXX..XX..X",
"XXXXXXXXXXXXX..XXX...XXX..XXX...XXX..XX..XXX..XXX...XXXX.  XXX..XXX.  .X.....XXXXXXXX...XXXXX..XX..X",
"XXXX...XXXXXXXXXXX..XXXX...XXX..XXXXXXX..XXX..XXX...XXXX..XXXX...XXX....X......XXXXXX.....XXX..XXXXX",
"XXXX...XXX  XXXXXX..XXXXX...XX...XXXXXX..XXXXXXXX  XXXXX..XXXX....XXXX..XXXX....XXXXXXX....XXXXXXXXX",
"XXXX..XXXX  XXXXX...XXXXXX...XX..XX  XX..XXXXXXXX  XXXX...XXXXX...XXXX...XXXX...XXXXXXXXX...XXXXXX..",
"XXXX..XXXXXXXXXX....XXXXXXX..XX..XX  XX..XXXXXXXXXXXXXX  XXXXXXX...XXXX...XXXX...XXXXXXXX....XXXX...",
"XXXX  XXXXX..XXX...XX..XXXX..XXXXXX  XX..XXXXXXXXXXXXXX  XXX..XXX.  XXX...XXXXX..XXXX..XXX...XXXX...",
"XXXX  XXXXX..XXXXXXXX..XXXX  XXXXXXXXX...XXXXXXXXXXXXXXXXXXX..XXX.  XXXX..  XXX  XXXX..XXXX..XXXX..X",
"XXXX..XXXXX..XXXXXXXX..XXXX  XXXX...X...XXXXX  .XXXXXXXXXXX...XXX..XXXXXX.  XXX  XXXX..XXXXXXXXX...X",
"XXXX..X  XX..X..XXXX...XXXX...XXX...X...XXXXX  .XX..XXXXXXX...XXXXXXXXXXX..XXXX..XXXX..XXXXXXXXX...X",
"XXXX..X  XX  X..XXXX..XXXXX...XXXX..XXXXXXXXX...XX.  XXXXXX..XXXXXXXXXXXX..XXX...XX  ..XXXXXXX  ..XX",
"XXX...XXXXX  X..XXXX  XXXXXX...XXX..XXXXXXXXXX..XX.  XXXXXX..XXXXXXXX  XX...XX...XX  ..XX..XXX  .XXX",
"XXX...XXXXX..X..XXXX  XXXXXX...XXX..XXXX...XXX..XXX..XXXXX..  XXXXXXX  XXX..XX..XXXX..XXX..XXXX..XXX",
"XXX..XXX..X..X...XX...XXXXXXX..XXX  XXX....XX...XXX..XXXXX..  XXX..XX   XX..XXXXXX....XXX..XXXX..XXX",
"XXXXXXXX..XXXX...XX..XXXX..XX...XX  XXX...XXX..XXXX...XXXX...XXXX...XX  XX..XXXXX....XXXX...XX...X..",
"X..XXXXX..XXXX.  XX..XXX...XX...XX..XXX..XXX...XXXXX..XXX...XXXXX...XXXXXX...XXX...XXXXXXX..XX..X...",
"X..X..XX  .XXX.  XX..XXX..XXXX..XX..XXX..XXX...XXXXX..XXX...XXXX....XXXXXXX..XX...XXXXXXXX..XX..X..X",
"X..X..XX  .XXX...XX..XXX..XXXXXXXX..XXX..XXX..XXXXXXXXXXX..XXXXX...XXXXXXXX..XX..XXXXXXXXX..XX..X..X"
};
