/* XPM */
static char *result[] = {
/* columns rows colors chars-per-pixel */
"100 100 9 1 ",
"  c black",
". c #265E1C",
"X c #48491C",
"o c #575823",
"O c #8D1A1A",
"+ c #329C1F",
"@ c #3DB428",
"# c #46D42D",
"$ c white",
/* pixels */
"##@@@########@@@#####@@@###@@########@@@#####@@@@@@@###@@########@@########@@@@##@@########@@###@@@#",
"###@@########@@#######@@###@@#########@@#####@@@@@#####@@@@######@@#########@@@##@@@######@@@###@@@#",
"#######@@@################@@@##+++#####################@@@@@@####@@@###@@########@@@#####++@@##@@@##",
"#+++###@@@#######@@#######@@@##+++##@@#####@@#########++##@@@#####@@###@@#########@@#####++@###@@@##",
"#+++###@@#######@@@##++##@@@###++##@@@#####@@#########+++#########@@##@@@#############@@@@@@###++###",
"##++###@@#####@@@@@#+++##@@@#######@@@####++@####@@###+++##@@@#######@@@####@@########@@@@@###@++###",
"#######@++####@@@###++###########++@@####@++@####@@########@@@@#####@@@@###@@@####@@##########@@@###",
"#######@++####@++###############@++@@###@@@@####@@@#########@@@####@@@#####@@#####@@##########@@####",
"#@@####@@@####@++#######@@######@@@@###@@@@####@@@@##########@@@###++#####@@@#####@@###############@",
"#@@#####@@###@@@#####@@@@@#############@@@####@@@@#######@@###@@###++#####@@@####++@####@@@@######@@",
"#@@@####@@###@@@####@@@@@##############@@#####@@#######@@@@##++@###@@####@@@#####++@@###@@@@++####@@",
"##@@####@@###@@####++@######################@@@@######@@@@###++@###@@####@@@######@@@######@++###@@@",
"##++@###@@########@++@#######@@@####@@@#####@@@#####@@@@######@@###@@####@@###++###@@#######@@@##@@#",
"##++@###@@########@@@#######@@@@####@@@@###@@@#####@++@#######@@@#############+++##@@@#######@@##@@#",
"###@@#######@@@##@@@######@@@@@#######@@@#++@#####@@++#########@@#############+++###@@@######@@#####",
"###@@######@@@@##@@@#####@@@@#########@@@#++@#####@@###########@@###@++#####@@#++###@@++#####@@#####",
"###@@####@++@@###@@@#####@@@###++##########@@@####@@####@@#####@@###@++#####@@#######@++@@###@@#####",
"###@@###@@++@#####@@@###++@####++##@@@######@@####@@###@@@########@@@@######@@########@@@@##@@@#####",
"#######@@@@#######@@@###++@####++##@@@######@@@###@@###@@@######@@@@@###@@##@++#@@######@@##@@######",
"######@@@@######++#######@@#########@@#######@@###++@##@@@@#####@@@@####@@##@++#@@@#########@@####@@",
"#####@@@@#######+++#####@@@###@@####@@++#####@@###++@###@@@@####@@#####@@@##@@##@@@#########@@###++@",
"#####@@@#####@@##++###@@@@@###@@@###@@++#####@@####@@@####++###++@####@@@##@@@###@@####@@###@@###++@",
"####@@@######@@#####@@@@@@####@@@####@@##########  #@@####++###++@###@@@###@@####@@####@@@##@@###@@#",
"###@@++######@@#####@@@########@@####@@@@#######    @@###@@@###@@@##@@@###@@@####@@####@@@######@@@#",
"##@@@++####@@@@#######################@@@####### .. @@###@@@###@@##++@###@@@@###########@@@#####@@##",
"#@@@#####@@@@@##############@@########@@@####@@+ .. @####@@###@@@##++@###@@@############@@@#####@@##",
"#@@######@@@################@@@##############@@+ .. ##########@@####@@##@@@########@@####++####@@@##",
"########@@@########@@##+++##@@@@@##+++########## .. ##########@@####@@##@@@########@@####++####@@###",
"########@@########@@@##+++####@@@##+++########## .. ##########@@###@@@##@@###@@####@@####@@@@#######",
"########@@########@@##+++######@@@#############  ..  ###@@#########@@#######@@@####@@#####@@@#######",
"##@@####@@#######@@@##+++######@@@#####@@@@@@@@ .... #@@@@#########@@#######@@@####@@######@@@######",
"##@@@#####@@#####@@##+++##@@###@@#####@@@@@@@@  ....  @@@##########++######@@@####@@@##++##@@@#####@",
"###@@@####@@#####@@##++##@@@###@@@####@@@##### ...... @@##########@++######@@@###@@@###+++##@@####@@",
"####@@####@@#####@@######@@#####@@####@@##++#  ......  ###@@@####@@@######@@@####@@@###+++########@@",
"####@@####@@####@@@######@@#####@@###@@@##+++ .....o.. ###@@@##@@@@@#####@@@####@@@#####++#######@@@",
"####@@@###@@####@@#######@@##########@@@###++ ..o..... ###@@@##@@@@######@@@####@@@####@@########@@#",
"#####@@###@@####@@######@@@##########@@####++ ..o..... ##++@############@@@############@@@######@@@#",
"#####@@###@@####@@######@@#######@@@@@@#####  .o.....o  #++@############@@#############@@@@####@@@##",
"#####++@##@@###@++#####@@@#######@@@@@#####  ..........  @@#######################@@#####@@@###@@###",
"#####++@##@@###@++####@@@###+++#########@@# .....  ..... @@@#######@@@######++####@@######@@###@@@##",
"###@@#@@@#####@@@#####@@@##++++#########@@@ .....  ..... #@@#######@@@@#####++####@@######@@@##@@++#",
"###@@##@@####@@@@####@@@##++++###########@  ....    ....  @@@@######@@++#########@@@#######@@###@++#",
"###@@##@@####@@@#####@@###+++##@@@#+++###@ ..... oo ..... #@@@#######@++#######@@@@########@@###@@@#",
"###@@##@@############@@###+++##@@@#++++##  ..... oo .....  #####@@###@@@####@@@@@@@##@@####@@@######",
"###@@################@@@########@@##+++## ......    ....o. #####@@####@@###@@@@@#####@@####@@@######",
"###@++###########++###@@#######@@@######  .......  ...o...  ####@@###@@@###@@@#######@@#####@@@#####",
"###@++######@@###+++##@@@######@@@#####@ ................o. @@##@@@##@@@###@@########@@######@@#####",
"###@@###@@##@@####++###@@######@@@#####  ...o..............  @##@@@##################@@######@@@####",
"###@@###@@##@@@#################@@##### ....o....  ......... @###++######@@@#########++#+++###@@####",
"###@@##@@@##@@@@########@@######@@@###  ....o...    ........  ###++@#####@@@###@@####++#++++##@@@###",
"##@@@##@@@###@@@#####@@@@@####++#@@@## ....oo... oo ...o.oo.. ####@@@#####@@###@@####@@##++++##@@###",
"##@@@#++@#####@@@###@@@@@@###+++##@@@@ ......... oo ......... #####@@###++@@###@@####@@###+++##@@##@",
"##@@##++@######@@@##@@@######+++###@@@ ..o.....  oo  ........ #####@@###++@####@@####@@############@",
"######@@@######@@@###########++###### ...o..... oooo ......... ########@@@@####@@####@@###########@@",
"#####@@@@#######++#######@@########## .....oo..  oo  ..o.o.... #######@@@@#####@@####@@@###@@#####@@",
"#####@@###@@####++#######@@#####@@### ..........    .......... @#####@@@@#+++##@@####@@@##@@@####@@@",
"#++##@@###@@@###@@@######@@####@@@### .....o.....  ........... @@####@@@##+++##@@@########@@#####@@#",
"#++##@@###@@@###@@@#####@@@####@@@###  ....o.................  @@###@@@###++###@@@#######@@@#####@@#",
"#####@@####@@####@@####@@@@####@@####@ .........    ......... ++@##@@@@###++####@@@######@@#####@++#",
"#####@@####@@#########@@@@####@@@####@ o........ oo ...o.o... ++@##@@@###########@@@####@@@####@@++#",
"###########@@@######++@@@####++@@####@ ......... oo ......... #@@################@@@####@@####@@@@##",
"##@@#######@@@@#####++@######++@###### ........  oo  .oo..... #@@########@@@######@@####@@###@@@@###",
"##@@@###++##@@++#####@@#####@@@####### ...o.... oooo ........ @@@########@@@@@@########@@@###@@@####",
"###@@@##++###@++####@@@#####@@@####### ........  oo  ........ @@###########@@@@@######@@@###########",
"###@@@#######@@@####@@@############### .........    .....o... @####@@#########@@@####@@@########@@##",
"##++@@##@@###@@@####@@############### ...o.......  .....o.o... ###@@@#########@@@####@@@########@@##",
"##++@###@@##@@@###################### .......O........O....... ##@@@@#####@@###@@###########@@@@@@##",
"###@@###@@##@@##++#####@@###++##@@### ......O..........O...... #@@@#####@@@@###@@#########@@@@@@@###",
"###@@###@@######++#####@@###++##@@### ........O......O........ @@@#####@@@@####@@#########@@@#######",
"#######++@########@@@@@@@#######@@@## .....O............O..... @@####@@@@######@@#########@@########",
"######@++@#######@@@@@@@########@@@@# ........O......O........ @@###@@@@###++#########@@##@@########",
"#####@@@@#######@@@########@@####@@@@  .. .O............O. ..  @###@@@####+++#########@@##@@####@@##",
"##++@@@@#######@@@#########@@######@@# .. ....O......O.... .. @@###@@#####+++######@@@@@########@@##",
"##++@@@########@@##########@@######@@   .   ............   .   ###@@@########@@@@@@++@@@#######@@@##",
"#@@@@######@@++@@##########@@@#####++ X ... ............ ... X ###@@#########@@@@@@++#########@@@###",
"#@@@#######@@++@@#####@@####@@@####++ XX ..   ........   .. XX @@@@@####@@@###################++@###",
"#@@@##@@##############@@####@@@##### XXX  ..$ ........ $..  XXX ++@#####@@@@#########@@@#####@++####",
"#@@@##@@#########@@###@@#####@@@#### XXX  ..$   ....   $..  XXX ++#######@@@@@#######@@@#####@@@####",
"##@@##@@@@#######@@###++#####@++#### XXX # .$$. .... .$$. # XXX ##########@@@@#######@@######@@####@",
"##@@##@@@++@#####@@###++######++#### XX ### .$.  ..  .$. ### XX ###@@###############@@@######@@##@@@",
"##@@#####++@@@########@@#####@@@####@  ####+  ...  ...  @####  ####@@#########@@@@@@@@@##++##@@##@@@",
"###########@@@@#####@@@@#####@@@###@@@######@   ....   @@@###@@@###@@###@@####@++@@@@####++##@@##@@#",
"############@@@###@@@@@######@@####@@@#@@###@@@      ###@++##@@@###@++##@@#####++############@@##@@#",
"#############@@###@@@###@@###@@@###@@##@@###@@###@@@####@++###@@###@++@#@@@@@########@@@#####@@##@@#",
"####@@@###########@@####@@@###@@#######@@###@@###@@@####@@####@@@###@@@@#@@@@@@######@@@@@###@@#####",
"####@@@###++######@@#####@@@##@@@######@@########++#####@@####@@@@####@@####@@@@#######@@@@#########",
"####@@####++#####@@@######@@@##@@##++##@@########++####@@@#####@@@####@@@####@@@#########@@@######@@",
"####@@##########@@@@#######@@##@@##++##@@##############++#######@@@####@@@####@@@########@@@@####@@@",
"####++#####@@###@@@##@@####@@######++##@@##############++###@@###@++###@@@#####@@####@@###@@@####@@@",
"####++#####@@########@@####++#########@@@###################@@###@++####@@++###++####@@####@@####@@#",
"####@@#####@@########@@####++####@@@#@@@#####++@###########@@@###@@######@++###++####@@#########@@@#",
"####@@#++##@@#@@####@@@####@@@###@@@#@@@#####++@##@@#######@@@###########@@####@@####@@#########@@@#",
"####@@#++##++#@@####@@#####@@@####@@#########@@@##@++######@@############@@###@@@##++@@#######++@@##",
"###@@@#####++#@@####++######@@@###@@##########@@##@++######@@########++##@@@##@@@##++@@##@@###++@###",
"###@@@#####@@#@@####++######@@@###@@####@@@###@@###@@#####@@++#######++###@@##@@####@@###@@####@@###",
"###@@###@@#@@#@@@##@@@#######@@###++###@@@@##@@@###@@#####@@++###@@##+++##@@######@@@@###@@####@@###",
"########@@####@@@##@@####@@##@@@##++###@@@###@@####@@@####@@@####@@@##++##@@#####@@@@####@@@##@@@#@@",
"#@@#####@@####@++##@@###@@@##@@@##@@###@@###@@@#####@@###@@@#####@@@######@@@###@@@#######@@##@@#@@@",
"#@@#@@##++@###@++##@@###@@####@@##@@###@@###@@@#####@@###@@@####@@@@#######@@##@@@########@@##@@#@@#",
"#@@#@@##++@###@@@##@@###@@########@@###@@###@@###########@@#####@@@########@@##@@#########@@##@@#@@#"
};
