/* XPM */
static char *result[] = {
/* columns rows colors chars-per-pixel */
"100 100 9 1 ",
"  c black",
". c #205617",
"X c #474629",
"o c #54532D",
"O c #A32A2A",
"+ c #329C1F",
"@ c #3DB428",
"# c #46D42D",
"$ c None",
/* pixels */
"##@@@########@@@#####@@@###@@########@@@#####@@@@@@@###@@########@@########@@@@##@@########@@###@@@#",
"###@@########@@#######@@###@@#########@@#####@@@@@#####@@@@######@@#########@@@##@@@######@@@###@@@#",
"#######@@@################@@@##+++#####################@@@@@@####@@@###@@########@@@#####++@@##@@@##",
"#+++###@@@#######@@#######@@@##+++##@@#####@@#########++##@@@#####@@###@@#########@@#####++@###@@@##",
"#+++###@@#######@@@##++##@@@###++##@@@#####@@#########+++#########@@##@@@#############@@@@@@###++###",
"##++###@@#####@@@@@#+++##@@@#######@@@####++@####@@###+++##@@@#######@@@####@@########@@@@@###@++###",
"#######@++####@@@###++###########++@@####@++@####@@########@@@@#####@@@@###@@@####@@##########@@@###",
"#######@++####@++###############@++@@###@@@@####@@@#########@@@####@@@#####@@#####@@##########@@####",
"#@@####@@@####@++#######@@######@@@@###@@@@####@@@@##########@@@###++#####@@@#####@@###############@",
"#@@#####@@###@@@#####@@@@@#############@@@####@@@@#######@@###@@###++#####@@@####++@####@@@@######@@",
"#@@@####@@###@@@####@@@@@##############@@#####@@#######@@@@##++@###@@####@@@#####++@@###@@@@++####@@",
"##@@####@@###@@####++@######################@@@@######@@@@###++@###@@####@@@######@@@######@++###@@@",
"##++@###@@########@++@#######@@@####@@@#####@@@#####@@@@######@@###@@####@@###++###@@#######@@@##@@#",
"##++@###@@########@@@#######@@@@####@@@@###@@@#####@++@#######@@@#############+++##@@@#######@@##@@#",
"###@@#######@@@##@@@######@@@@@#######@@@#++@#####@@++#########@@#############+++###@@@######@@#####",
"###@@######@@@@##@@@#####@@@@#########@@@#++@#####@@###########@@###@++#####@@#++###@@++#####@@#####",
"###@@####@++@@###@@@#####@@@###++##########@@@####@@####@@#####@@###@++#####@@#######@++@@###@@#####",
"###@@###@@++@#####@@@###++@####++##@@@######@@####@@###@@@########@@@@######@@########@@@@##@@@#####",
"#######@@@@#######@@@###++@####++##@@@######@@@###@@###@@@######@@@@@###@@##@++#@@######@@##@@######",
"######@@@@######++#######@@#########@@#######@@###++@##@@@@#####@@@@####@@##@++#@@@#########@@####@@",
"#####@@@@#######+++#####@@@###@@####@@++#####@@###++@###@@@@####@@#####@@@##@@##@@@#########@@###++@",
"#####@@@#####@@##++###@@@@@###@@@###@@++#####@@####@@@####++###++@####@@@##@@@###@@####@@###@@###++@",
"####@@@######@@#####@@@@@@####@@@####@@#############@@####++###++@###@@@###@@####@@####@@@##@@###@@#",
"###@@++######@@#####@@@########@@####@@@@##########@@@###@@@###@@@##@@@###@@@####@@####@@@######@@@#",
"##@@@++####@@@@#######################@@@#########@@@@###@@@###@@##++@###@@@@###########@@@#####@@##",
"#@@@#####@@@@@##############@@########@@@####@@++@@@@####@@###@@@##++@###@@@############@@@#####@@##",
"#@@######@@@################@@@##############@@++@@###########@@####@@##@@@########@@####++####@@@##",
"########@@@########@@##+++##@@@@@##+++###########  ###########@@####@@##@@@########@@####++####@@###",
"########@@########@@@##+++####@@@##+++#########      #########@@###@@@##@@###@@####@@####@@@@#######",
"########@@########@@##+++######@@@############# .... ###@@#########@@#######@@@####@@#####@@@#######",
"##@@####@@#######@@@##+++######@@@#####@@@@@@@  ....  @@@@#########@@#######@@@####@@######@@@######",
"##@@@#####@@#####@@##+++##@@###@@#####@@@@@@@  ......  @@##########++######@@@####@@@##++##@@@#####@",
"###@@@####@@#####@@##++##@@@###@@@####@@@#### ..O..O.. @##########@++######@@@###@@@###+++##@@####@@",
"####@@####@@#####@@######@@#####@@####@@##++  O......O  ##@@@####@@@######@@@####@@@###+++########@@",
"####@@####@@####@@@######@@#####@@###@@@##++ ...O..O... ##@@@##@@@@@#####@@@####@@@#####++#######@@@",
"####@@@###@@####@@#######@@##########@@@###  ..........  #@@@##@@@@######@@@####@@@####@@########@@#",
"#####@@###@@####@@######@@@##########@@#### .O........O. ++@############@@@############@@@######@@@#",
"#####@@###@@####@@######@@#######@@@@@@###  .....  .....  +@############@@#############@@@@####@@@##",
"#####++@##@@###@++#####@@@#######@@@@@#### ..... XX ..... @#######################@@#####@@@###@@###",
"#####++@##@@###@++####@@@###+++#########@  ..... oo .o...  @#######@@@######++####@@######@@###@@@##",
"###@@#@@@#####@@@#####@@@##++++#########@ ...... oo ...... @#######@@@@#####++####@@######@@@##@@++#",
"###@@##@@####@@@@####@@@##++++##########  ...... XX ..oo..  @@######@@++#########@@@#######@@###@++#",
"###@@##@@####@@@#####@@###+++##@@@#+++## ........  ........ @@#######@++#######@@@@########@@###@@@#",
"###@@##@@############@@###+++##@@@#++++# ..o.....  .....o.. ####@@###@@@####@@@@@@@##@@####@@@######",
"###@@################@@@########@@##+++  ...............o..  ###@@####@@###@@@@@#####@@####@@@######",
"###@++###########++###@@#######@@@##### ..o.....$  $.o...... ###@@###@@@###@@@#######@@#####@@@#####",
"###@++######@@###+++##@@@######@@@##### ........ XX ........ @##@@@##@@@###@@########@@######@@#####",
"###@@###@@##@@####++###@@######@@@##### .o...... oo .....o.. @##@@@##################@@######@@@####",
"###@@###@@##@@@#################@@##### ........ oo .....o.. @###++######@@@#########++#+++###@@####",
"###@@##@@@##@@@@########@@######@@@#### ....o... XX ...oo... @###++@#####@@@###@@####++#++++##@@@###",
"##@@@##@@@###@@@#####@@@@@####++#@@@### ....o....  ...o..... @####@@@#####@@###@@####@@##++++##@@###",
"##@@@#++@#####@@@###@@@@@@###+++##@@@@#  o.......  ...o....  @#####@@###++@@###@@####@@###+++##@@##@",
"##@@##++@######@@@##@@@######+++###@@@@# .................. @@#####@@###++@####@@####@@############@",
"######@@@######@@@###########++######@@# ........  .....o.. ###########@@@@####@@####@@###########@@",
"#####@@@@#######++#######@@#############  ...... XX ......  ##########@@@@#####@@####@@@###@@#####@@",
"#####@@###@@####++#######@@#####@@####### ..o... oo ..o... ###@@#####@@@@#+++##@@####@@@##@@@####@@@",
"#++##@@###@@@###@@@######@@####@@@#######  oo... oo .....  ###@@@####@@@##+++##@@@########@@#####@@#",
"#++##@@###@@@###@@@#####@@@####@@@###@@@## ....o XX ..... ####@@@###@@@###++###@@@#######@@@#####@@#",
"#####@@####@@####@@####@@@@####@@####@@@## ......  ..o... ####++@##@@@@###++####@@@######@@#####@++#",
"#####@@####@@#########@@@@####@@@####@@###  .....  ..o..  ####++@##@@@###########@@@####@@@####@@++#",
"###########@@@######++@@@####++@@####@@###@ .o.......... ######@@################@@@####@@####@@@@##",
"##@@#######@@@@#####++@######++@#########@   ...o...o..   #####@@########@@@######@@####@@###@@@@###",
"##@@@###++##@@++#####@@#####@@@#########@  X  ......o.  X  ##@@@@########@@@@@@########@@@###@@@####",
"###@@@##++###@++####@@@#####@@@#######@@@ XXX ........ XXX ##@@@###########@@@@@######@@@###########",
"###@@@#######@@@####@@@###############@@@# XX  ...o..  XX ##@@@####@@#########@@@####@@@########@@##",
"##++@@##@@###@@@####@@################@@##+    ......    ###@@####@@@#########@@@####@@@########@@##",
"##++@###@@##@@@#######################@@######  ....   ####++@###@@@@#####@@###@@###########@@@@@@##",
"###@@###@@##@@##++#####@@###++##@@####@@####### .... @@####++###@@@#####@@@@###@@#########@@@@@@@###",
"###@@###@@######++#####@@###++##@@#######++#### .... ####@@@@##@@@#####@@@@####@@#########@@@#######",
"#######++@########@@@@@@@#######@@@######++####  ..  ###@@@@###@@####@@@@######@@#########@@########",
"######@++@#######@@@@@@@########@@@@############ .. ####@@####@@@###@@@@###++#########@@##@@########",
"#####@@@@#######@@@########@@####@@@@#####@@@### .. ###@@@####@@###@@@####+++#########@@##@@####@@##",
"##++@@@@#######@@@#########@@######@@####@@@@### .. ###@@#####@@###@@#####+++######@@@@@########@@##",
"##++@@@########@@##########@@######@@@###@@@####    ###++#########@@@########@@@@@@++@@@#######@@@##",
"#@@@@######@@++@@##########@@@#####++@###@@######  ####++#########@@#########@@@@@@++#########@@@###",
"#@@@#######@@++@@#####@@####@@@####++@@##@@@#####  ###########@@@@@@####@@@###################++@###",
"#@@@##@@##############@@####@@@######@@###@@@####  +@######@@@@@++@#####@@@@#########@@@#####@++####",
"#@@@##@@#########@@###@@#####@@@####@@@####@@@###  +@######@@@@#++#######@@@@@#######@@@#####@@@####",
"##@@##@@@@#######@@###++#####@++####@@@#####@@####@@######################@@@@#######@@######@@####@",
"##@@##@@@++@#####@@###++######++####@@#####++@####@@###############@@###############@@@######@@##@@@",
"##@@#####++@@@########@@#####@@@####@@#####++@####@@###@@##########@@#########@@@@@@@@@##++##@@##@@@",
"###########@@@@#####@@@@#####@@@###@@@######@@@###@@###@@@###@@@###@@###@@####@++@@@@####++##@@##@@#",
"############@@@###@@@@@######@@####@@@#@@###@@@###@@####@++##@@@###@++##@@#####++############@@##@@#",
"#############@@###@@@###@@###@@@###@@##@@###@@###@@@####@++###@@###@++@#@@@@@########@@@#####@@##@@#",
"####@@@###########@@####@@@###@@#######@@###@@###@@@####@@####@@@###@@@@#@@@@@@######@@@@@###@@#####",
"####@@@###++######@@#####@@@##@@@######@@########++#####@@####@@@@####@@####@@@@#######@@@@#########",
"####@@####++#####@@@######@@@##@@##++##@@########++####@@@#####@@@####@@@####@@@#########@@@######@@",
"####@@##########@@@@#######@@##@@##++##@@##############++#######@@@####@@@####@@@########@@@@####@@@",
"####++#####@@###@@@##@@####@@######++##@@##############++###@@###@++###@@@#####@@####@@###@@@####@@@",
"####++#####@@########@@####++#########@@@###################@@###@++####@@++###++####@@####@@####@@#",
"####@@#####@@########@@####++####@@@#@@@#####++@###########@@@###@@######@++###++####@@#########@@@#",
"####@@#++##@@#@@####@@@####@@@###@@@#@@@#####++@##@@#######@@@###########@@####@@####@@#########@@@#",
"####@@#++##++#@@####@@#####@@@####@@#########@@@##@++######@@############@@###@@@##++@@#######++@@##",
"###@@@#####++#@@####++######@@@###@@##########@@##@++######@@########++##@@@##@@@##++@@##@@###++@###",
"###@@@#####@@#@@####++######@@@###@@####@@@###@@###@@#####@@++#######++###@@##@@####@@###@@####@@###",
"###@@###@@#@@#@@@##@@@#######@@###++###@@@@##@@@###@@#####@@++###@@##+++##@@######@@@@###@@####@@###",
"########@@####@@@##@@####@@##@@@##++###@@@###@@####@@@####@@@####@@@##++##@@#####@@@@####@@@##@@@#@@",
"#@@#####@@####@++##@@###@@@##@@@##@@###@@###@@@#####@@###@@@#####@@@######@@@###@@@#######@@##@@#@@@",
"#@@#@@##++@###@++##@@###@@####@@##@@###@@###@@@#####@@###@@@####@@@@#######@@##@@@########@@##@@#@@#",
"#@@#@@##++@###@@@##@@###@@########@@###@@###@@###########@@#####@@@########@@##@@#########@@##@@#@@#"
};
