/* XPM */
static char *result[] = {
/* columns rows colors chars-per-pixel */
"100 100 9 1 ",
"  c black",
". c #327227",
"X c #484B1C",
"o c #575A20",
"O c #902C09",
"+ c #329C1F",
"@ c #3DB428",
"# c #46D42D",
"$ c white",
/* pixels */
"#@@@###@@########@@##@@@@########@@########@@###@@@@@@@#####@@@########@@###@@@#####@@@########@@@##",
"#@@@###@@@######@@@##@@@#########@@######@@@@#####@@@@@#####@@#########@@###@@#######@@########@@###",
"##@@@##@@++#####@@@########@@###@@@####@@@@@@#####################+++##@@@################@@@#######",
"##@@@###@++#####@@#########@@###@@#####@@@##++#########@@#####@@##+++##@@@#######@@#######@@@###+++#",
"###++###@@@@@@#############@@@##@@#########+++#########@@#####@@@##++###@@@##++##@@@#######@@###+++#",
"###++@###@@@@@########@@####@@@#######@@@##+++###@@####@++####@@@#######@@@##+++#@@@@@#####@@###++##",
"###@@@##########@@####@@@###@@@@#####@@@@########@@####@++@####@@++###########++###@@@####++@#######",
"####@@##########@@#####@@#####@@@####@@@#########@@@####@@@@###@@++@###############++@####++@#######",
"@###############@@#####@@@#####++###@@@##########@@@@####@@@@###@@@@######@@#######++@####@@@####@@#",
"@@######@@@@####@++####@@@#####++###@@###@@#######@@@@####@@@#############@@@@@#####@@@###@@#####@@#",
"@@####++@@@@###@@++#####@@@####@@###@++##@@@@#######@@#####@@##############@@@@@####@@@###@@####@@@#",
"@@@###++@######@@@######@@@####@@###@++###@@@@######@@@@######################@++####@@###@@####@@##",
"#@@##@@@#######@@###++###@@####@@###@@######@@@@#####@@@#####@@@####@@@#######@++@########@@###@++##",
"#@@##@@#######@@@##+++#############@@@#######@++@#####@@@###@@@@####@@@@#######@@@########@@###@++##",
"#####@@######@@@###+++#############@@#########++@@#####@++#@@@#######@@@@@######@@@##@@@#######@@###",
"#####@@#####++@@###++#@@#####++@###@@###########@@#####@++#@@@#########@@@@#####@@@##@@@@######@@###",
"#####@@###@@++@#######@@#####++@###@@#####@@####@@####@@@##########++###@@@#####@@@###@@++@####@@###",
"#####@@@##@@@@########@@######@@@@########@@@###@@####@@######@@@##++####@++###@@@#####@++@@###@@###",
"######@@##@@######@@#++@##@@###@@@@@######@@@###@@###@@@######@@@##++####@++###@@@#######@@@@#######",
"@@####@@#########@@@#++@##@@####@@@@#####@@@@##@++###@@#######@@#########@@#######++######@@@@######",
"@++###@@#########@@@##@@##@@@#####@@####@@@@###@++###@@#####++@@####@@###@@@#####+++#######@@@@#####",
"@++###@@###@@####@@###@@@##@@@####@++###++####@@@####@@#####++@@###@@@###@@@@@###++##@@#####@@@#####",
"#@@###@@##@@@####@@####@@###@@@###@++###++####@@#############@@####@@@####@@@@@@#####@@######@@@####",
"#@@@######@@@####@@####@@@###@@@##@@@###@@@###@@@##########@@@@####@@########@@@#####@@######++@@###",
"##@@#####@@@###########@@@@###@++##@@###@@@###@@@@#########@@@#######################@@@@####++@@@##",
"##@@#####@@@############@@@###@++##@@@###@@####@@@@++@@####@@@########@@##############@@@@@#####@@@#",
"##@@@####++####@@########@@@##@@####@@###########@@++@###############@@@################@@@######@@#",
"###@@####++####@@########@@@##@@####@@###################    #+++##@@@@@##+++##@@########@@@########",
"#######@@@@####@@####@@###@@##@@@###@@###     ###########  o   #+##@@@####+++##@@@########@@########",
"#######@@@#####@@####@@@#######@@########  oo   ##########  oo  ##@@@######+++##@@########@@########",
"######@@@######@@####@@@#######@@#########  ooo  ####@@@@## ooo  #@@@######+++##@@@#######@@####@@##",
"@#####@@@##++##@@@####@@@###       ########  ooo  ###@@@@##  ooo  ##@###@@##+++##@@#####@@#####@@@##",
"@@####@@##+++###@@@###@@@###  oooo  ######## oooo  ######### oooX ##@###@@@##++##@@#####@@####@@@###",
"@@########+++###@@@####@@@#### oooo ###@@@## oooXX #####@@## XXXX @######@@######@@#####@@####@@####",
"@@@#######++#####@@@####@@@#### ooo   #@@@## XXXXXX ###@@@## XXXX  ######@@######@@@####@@####@@####",
"#@@########@@####@@@####@@@##### oooX #@@@## XXXXXX ##@@@##  XXXXX ######@@#######@@####@@###@@@####",
"#@@@######@@@############@@@#### XXXXX #@++  XXXXXX                 #####@@@######@@####@@###@@#####",
"##@@@####@@@@#############@@#### XXXXX #@+          ...............   ####@@######@@####@@###@@#####",
"###@@###@@@#####@@############## XXXXX     ..........................  ###@@@#####++@###@@##@++#####",
"##@@@###@@######@@####++######@@  X    ................................  ##@@@####++@###@@##@++#####",
"#++@@##@@@##  ##@@####++#####@@     ..........................O..O...... ##@@@#####@@@#####@@@#@@###",
"#++@###@@###    @@@#########++@  .........................OO..........       @@####@@@@####@@##@@###",
"#@@@###@@### ...    @#######+  .................................O....  .....  @#####@@@####@@##@@###",
"######@@@#### ......         .........X......X................O.....  .......  ############@@##@@###",
"######@@@####  ..X..X.............X.........................O....O............ ################@@###",
"#####@@@#####@ ..........X...............X.........X...........O..............  #++###########++@###",
"#####@@######@  .oooooo............X............X...........O.................. +++###@@######++@###",
"####@@@######@@  oooooooooooooo......................X......................... ++####@@##@@###@@###",
"####@@###+++#++#  oooooooooooooooo............................. ............... #####@@@##@@###@@###",
"###@@@##++++#++##  oooooooooooooooooo.....ooooooo.....oooo.....  .......  ..... ####@@@@##@@@##@@###",
"###@@##++++##@@###  oooooooooooooooooooooooooooooooooooooooo...     ...    .... ####@@@###@@@##@@@##",
"@##@@##+++###@@####   ooooooooooooooooooooooooooooooooooooooooXXo $  .  oo  ..  ###@@@#####@++#@@@##",
"@############@@####@@#  ooooooooooooooooooooooooooooooooooooooXoo $$   oooo    @##@@@######@++##@@##",
"@@###########@@####@@##    oooooooooooooooooooooooooooooooooooooo $$ oooooo $ ####@@@######@@@######",
"@@#####@@###@@@####@@#####   oooooooooooooooooooooooooooooooooooo $ oooooo $$ ####++#######@@@@#####",
"@@@####@@@##@@@####@@##+++#@   ooooooooooooooooooooooooooooooooooo oooo    $ #####++####@@###@@#####",
"#@@#####@@########@@@##+++##@@@ ooooooooooooooooooooooooooooooooooooo   #@@ #####@@@###@@@###@@##++#",
"#@@#####@@@#######@@@###++###@@ oooooooooooooooooooooooooooooooo      ###@@@#####@@@###@@@###@@##++#",
"#++@#####@@######@@@####++###@@ ooooooo               ooooo     XXXX ####@@@@####@@####@@####@@#####",
"#++@@####@@@####@@@###########@  oooooo ##@@##++####  ooooo # XXXXX  @####@@@@#########@@####@@#####",
"##@@@@####@@####@@@############# ooooo  ######++#####  ooo  #  XXX  @++####@@@++######@@@###########",
"###@@@@###@@####@@######@@@#####  oo   #######@@######  oo ###     #@++######@++#####@@@@#######@@##",
"####@@@###@@@########@@@@@@######    @@#######@@###@###   #@####  ###@@@#####@@#####++@@##++###@@@##",
"###########@@@######@@@@@###########@@@######@@@###@@####@@@@@#######@@@#####@@@####++@###++##@@@###",
"##@@########@@@####@@@#########@@####@@@#####@@@###@@######@@@###############@@@####@@@#######@@@###",
"##@@########@@@####@@@#########@@@####@@#####@@####@@##+++##@@################@@####@@@###@@##@@++##",
"##@@@@@@###########@@###@@#####@@@@###@++####@@####@@##+++##@@#######################@@@##@@###@++##",
"###@@@@@@@#########@@###@@@@#####@@@###++@###@@####@@##+++##@@####@@##++###@@#####++##@@##@@###@@###",
"#######@@@#########@@####@@@@#####@@@##@@@@#######@@@####++#######@@##++###@@#####++######@@###@@###",
"########@@#########@@######@@@@####@@###@@@@######@@@####++######@@@#######@@@@@@@########@++#######",
"########@@##@@#########++###@@@@###@@@####@@#####@@@############@@@@########@@@@@@@#######@++@######",
"##@@####@@##@@#########+++####@@@###@@####@@@####@@####@@@#####@@@@####@@########@@@#######@@@@#####",
"##@@########@@@@@######+++#####@@###@@#####@@##########@@@@####@@######@@#########@@@#######@@@@++##",
"##@@@#######@@@++@@@@@@########@@@#########++###########@@@###@@@######@@##########@@########@@@++##",
"###@@@#########++@@@@@@#########@@#########++############@@###@++#####@@@##########@@++@@######@@@@#",
"###@++###################@@@####@@@@@@##################@@@##@@++####@@@####@@#####@@++@@#######@@@#",
"####++@#####@@@#########@@@@#####@++@@@@@######@++#####@@@###@@######@@@####@@##############@@##@@@#",
"####@@@#####@@@#######@@@@@#######++#@@@@######@++####@@@####@@@####@@@#####@@###@@#########@@##@@@#",
"@####@@######@@#######@@@@######################@@####@@#####@@@####++@#####++###@@#######@@@@##@@##",
"@@@##@@######@@@###############@@###############@@####@++#####@@####++######++###@@#####@++@@@##@@##",
"@@@##@@##++##@@@@@@@@@#########@@##########@@###@@####@++#####@@####@@@#####@@########@@@++#####@@##",
"#@@##@@##++####@@@@++@####@@###@@###@@@###@@@###@@###@@@######@@@###@@@#####@@@@#####@@@@###########",
"#@@##@@############++#####@@##++@###@@@##++@####@@###@@@###@@#@@@####@@######@@@@@###@@@############",
"#@@##@@#####@@@########@@@@@#@++@###@@###++@####@@@###@@###@@##@@###@@@###@@###@@@###@@#############",
"#####@@###@@@@@######@@@@@@#@@@@###@@@####@@####@@@###@@###@@#######@@###@@@####@@###########@@@####",
"#########@@@@#######@@@@####@@####@@@@####@@#####++########@@######@@@##@@@#####@@######++###@@@####",
"@@######@@@#########@@@####@@@####@@@#####@@@####++########@@##++##@@##@@@######@@@#####++####@@####",
"@@@####@@@@########@@@####@@@####@@@#######++##############@@##++##@@##@@#######@@@@##########@@####",
"@@@####@@@###@@####@@#####@@@###++@###@@###++##############@@##++######@@####@@##@@@###@@#####++####",
"#@@####@@####@@####++###++@@####++@###@@###################@@@#########++####@@########@@#####++####",
"#@@@#########@@####++###++@######@@###@@@###########@++#####@@@#@@@####++####@@########@@#####@@####",
"#@@@#########@@####@@####@@###########@@@#######@@##@++#####@@@#@@@###@@@####@@@####@@#@@##++#@@####",
"##@@++#######@@++##@@@###@@############@@######++@##@@@#########@@####@@@#####@@####@@#++##++#@@####",
"###@++###@@##@@++##@@@##@@@##++########@@######++@##@@##########@@###@@@######++####@@#++#####@@@###",
"###@@####@@###@@####@@##@@###++#######++@@#####@@###@@###@@@####@@###@@@######++####@@#@@#####@@@###",
"###@@####@@###@@@@######@@##+++##@@###++@@#####@@###@@@##@@@@###++###@@#######@@@##@@@#@@#@@###@@###",
"@@#@@@##@@@####@@@@#####@@##++##@@@####@@@####@@@####@@###@@@###++##@@@##@@####@@##@@@####@@########",
"@@@#@@##@@#######@@@###@@@######@@@#####@@@###@@#####@@@###@@###@@##@@@##@@@###@@##++@####@@#####@@#",
"#@@#@@##@@########@@@##@@#######@@@@####@@@###@@#####@@@###@@###@@##@@####@@###@@##++@###@++##@@#@@#",
"#@@#@@##@@#########@@##@@########@@@#####@@###########@@###@@###@@########@@###@@##@@@###@++##@@#@@#"
};
