/* XPM */
static char *result[] = {
/* columns rows colors chars-per-pixel */
"100 100 9 1 ",
"  c black",
". c #1D5812",
"X c #265A1D",
"o c #257017",
"O c #8D6E24",
"+ c #2E901D",
"@ c #329C1F",
"# c #3DB428",
"$ c #46D42D",
/* pixels */
"                                                                                                    ",
" XXXXXXXXXXX  @@@@@@@@@@@@@@@@@@@@@XXXX@@@@@@@@@XXXXXX@@@@@@@@@@  @@@@@@XX@@@ XXXXXXXXXXXXXXXXXXXXX ",
" XXXXXXXXXXXX  @@@@@XXXX@@@@@@@@@@XX       @@@@@@@@XXX@@@@@@    X  @@@@@@@@@@ XXXXXXXXXXXXXXXXX++++ ",
" XXXXXXXXXXXXXX   @@XXXX@@@@@@@@@X  XXXXXX  @@@@@@@@@@@@     @@@@@   @@@@@@@@ XXXXXXXXXXXXXX+++XXXX ",
" XXXXXXXXXXXXXXXXX    @@@@@XX@    XXXXXXXXXX @@@@@@@@@  @@@@@@@@@@@@@     @XXX XXXXXXXXXXXXXXXXXXXX ",
" XXXXXXXXXXXXXXXXXXXXX  @@XX  XXXXXXXXXXXXXXX  @@@@@  @XXX@@@@@@@XX@@@XXX@      XXXXX++XXXXXXXXXXXX ",
" XXXXXXXXXXXXXXXXXXXXXXX  X XXXXXXXXXXXXXXXXXXX  @  @@@XXX@@@@@@@XX@@XXXX@@@@@@ XXXXXXXXXX+XX++XXXX ",
" XXXXXXXXXXXXXXXXXXXXXXXXX XXXXXXXX++++++XXXXXX@  @@@@@XX@@@@@@@@XX@@XXX@@@@@@@@ XXXXXXXX++XXX+XXXX ",
" XXXXXXX+++++XXXXXXXXXXX   XXXXXXX+XXXXXXXXXXXXX  @@@@@XX@@@@@@@XXX@@@@@@@@@@@@@@ XXXXXX++++X++XXXX ",
" XXXXXXXXXXX++XXXXXXX    XXXXXXXXX+XXXXXXXXXXXXX XX@@@@@@@@@@@@@XX@@@@@@@@@@@@@@@@  XXXXXX+XX+XXXXX ",
" XXXXXXXXXXXX++XXXXXX XXXXXXXXXXXXXXXXXXXXXXXXX XXX@@@@@@@@@@@@@XX@@@@@@@@XX@@@@@@@@  XXXX+XX++XXXX ",
" XXXXXXXXXXXXXXXXXXXXX XXXXXXXXXXXXXXXXXXXXXXXX @@@@@@@@@@@@@@@@XX@@@@@@XXXX@@@@@@@@@@    XXXXXXXXX ",
" XXXXXXXXXXXXXXXXXXXXX XXXXXXXXXXXXXXXXXXXXX    @@@@@@@@@@@@@XX@XX@@@@@@XXX@@@@@@@@@@@ @@@  XXXXXXX ",
" XXXXXXXXXXXXXXXXXXXXX XXXXXXXXXXXXXXXXX    @@@@@@@@@@@@@@@@XXX@@@@@@@@@@@@@@@@@@@XX@  @@@@@  XXXXX ",
" XXXXXXX++XXX++XXXXXXX XX+XXXXXXXXXXX   XXXXXX@@@@@@@@@@@@@XXX@@@@@@@@@@@@@@@@@@@@XXX @@@@@@@   XXX ",
" XXXXXXXXX++++XXXXXXXX XX+XXXXXXXXXX @@@XXXXXXXXXXXXXXX@@@@XXX@@@@@@@@@@@@@@@@@@@@XXX @@@@XX@@@     ",
" XXXXXXXXXXXXXXXXXXXX XXXX++XXX++XXX @@@@@@@@XXXXXXXXXX@@@@@@@@@@@@@@@@@@@@@@@@@@@@X @@@@XXX@@@@@@@ ",
"       XXXXXXXXXXXXXX XXXXXX+++XXXX  @@@@@@@@@@@@@@@@@@@@@@@@@@@@@@@@@@@@@@@@@@@@@  @@@@@XXX@@@@@@@ ",
" @@@@@    XXXXXXXXXX  XXXXXXXXXXXXX @@@@@@@@@@@@@@@@@@@@@@@@@@@@@@@@@XX@@@@@@@@   @@@@@@@@@@@@@@@@@ ",
"XXX@@@@@@@  XXXXXXXX XXXXXXXXXXXXXX @@@@@@@@@@@@@@@@@@@@@XX@@@@@@@@@@XXX@@@@@  @@@@@@@@@@@@@@@XXX@@ ",
"XXXX@@@@@@@@  XXXXXX XXXXXXXXXXXXX X@@@@@@@@@@@@@@@@@@@@@XXX@@@@@@@@@@XX@@@@  @@@@@@@@@@XXXXXXXXX@@ ",
" XXX@@@@@@@@@@            XXXXXXXX @@@@@XXXXXXXX@@@@@@@@@XXX@@@@@@@@@@@@@@X  @@@@@@@@@@@XXXXXXXX@@@ ",
" @XX@@@XX@@@@@@@@@@ @@@@@@    XXXX @@@@@XXXXXXXX@@@@@@@@@XX@@@@@@@@@@@@@@@  @@@@@@@@@@@@XX@@@@@@@@@ ",
" @@@@@@XX@@@@@@@@@@@@@@@@@@@@@     @@@@@XX@@@@XX@@@@@@@@@XX          @@@@@ @@@@@XX@@@@@@XX@@@@@@@@@ ",
" @@@@@@XX@@@@@@@@@@@@@@@@@@@@@@@@    @@@@@@@@@@            @@@@@@@@@@   @@ @@@@@XXX@@@@@@@@@@@@@@@@ ",
" @@@@@@XX@@@@@@@@@@@@@@@@XXX@@@@@   X @@@@@@@  XX@@@@@@@@XX@@@@@@@@@@@@@  @@@@@@@XXX@@@@@@@@@@@@@@@ ",
" @@@@@@XX@@@@@@@@XX@@@@@@XXX@@XX  XXXX @@@@@@ @XX@@@@@@@@XX@@@@@@@@@@@@@@  @@@@@@@XXX@@@@@@@@@@@@@@ ",
" XX@@@@XX@@@@@@@@XX@@@@@@@XX@@XX@ XXXX  @@   @@XX@@@@@@@@XX@@@@@@@@@@@@@@@@ @@@@@@@XX@@@@@@@@@@XX@@ ",
" XX@@@@@@@@@@@@@XXX@@@@@@@@@@@XX XXXXXX @ @@@@@XX@@@@@@@@XX@@@@@@@@@@@@@@@@@ @@@@@@@@@@@@@@@@XXXX@@ ",
" @@@@@@@@@@@@@@@XX@@@@@@@@@@@@X XXXX+XXX @@@@@@XX@@@@@@@@XX@@@@@@@@@@@@@@@@@@ @@@@@@@@@@@XXXXXXX@@@ ",
" @@@@@@@@@@@@@@@@@@@@@@@@@@@@@ XXXX+XXXX @@@@@@@@@@@@@@@@@@@@@@@@@@@@@@@@@@@@@ @@@@@@@@@XXXXXXX@@@@ ",
" @@@@@@@@@@@@@@@@@@@@@@@XX@@@ XXXX+XXXX @@@@@@@@@@@@@@@@@@@@@@@@@@@@@@@@@@@@@@@ @@@@@@@@XXX@@@@@@@@ ",
" @@@@@@@@@@@@@@@@@@@@@@@XX@@@ XXX+XXXXX @@@@@@@@@@@@@@@@@@@@@@@@@@@@@XX@@@@@@@@@ @@@@@@@@       @@@ ",
" @@XX@@@@XX@@@@@@@@@@@@@XX@  XXXX+XXXXX @@@@@@@@@@@@@@@@@@@@@@@@@@@@@XXX@@@@@@@@@ @@@    XXXXXXX    ",
" @XXX@@@@XX@@@@@@@@@@@@@XX@ XXXXXXXXXX  @@@@@@@@@@@@@@@@XX@@@@XX@@@@@@XXX@@@@@@@@    XXXXXXXXXXXXXX ",
" @XX@@@@@@@@@@@@@@@@@@@@XX@ XXXXXXXXXX XX@@@@XXXXXX@@@@@XX@@@@XXX@@@@@@XXX@@@@@  XXXXXXXXXXXXXXXXXX ",
" @XX@@@@@@@@@@@XX@@@@@@@@@ XXXXXXXXXXX XX@@@@XXXXXX@@@@@@@@@@@XXX@@@@@@@XXX@@  XXXXXXXXXXXXXXXXXXXX ",
" @XX@@@@@@@@@@@XX@@@@@@@@@ XXXXXXXXXXX @@@@@@@XXX@@@@@@@@@@@@@@XXX@@@@@@@XX  XXXXXXXXXXXXXX+XXXXXXX ",
" @@@@@@@@@@@@@XXX@@@@@@          XXXX @@@@@@@@@@@@@@@@@@@@@@@@@@XX@@@@@@@@ XXXXXXXXXXXXXX+++XXXXXXX ",
"                       XXXXXXXXXX   X @@@@@@@@@@@@@@@@@@@@@@@@@@@@@@@@@@  XXXXXXXXXXX++++XXXXXX++XX ",
" XXXXXXXXXXXXXXXXXXXXXXXXXXXXXXXX@@@  @@@@@@@@@@@@@@@@@@@@@@@@@@@@@@@@@ XXXXXXXXXXXX++XXXXXXXX++XXX ",
" XXXXXXXXXXXXXXXXXXXXXXXXXXXXXXXX@@@@ @@@@@@@@@@@@       @@XX@@@@@@@@  XXXXXXXXXXXXX+XXXXXXXX++XXXX ",
" XXXXXXX+XXXXXXX+XXXXXXXXXXXXXXXX@@@@ @@@@@@@@    @@@@@@ @@XX@@@@@@  XXXXXXXXXXXXXXXXXXXXXXXX+XXXXX ",
" XXXXXXX+XXXXXXX+++XXX+XXXXXXXXX@@@@@ XX@@    @@@@@@@@@@@ XXX@@@@  XXXXXXXXXXXXXXXXXXXXXXXXXXXXXXXX ",
" XXXXXX++XXXXXXXXXX+++XXXXXXXX@@@@@@@ XX  @@@@@@@@@@@@@@@@   @@@  XXXXXXXXXXXXXXXX+XXXXXXXXXXXXXXXX ",
" XXXXXX+XXXXXXXXXXXXXXXXXXXX@@@@@@@@@ @ @@@@@@@@@@@@@@@@@@@@   @ XXXXXXXXXXXXXXXXX+XXXXXXXXXXXXXXXX ",
" XXXXX+XXXXXXXXXXXXXXXXXX@@@@@@@@@@@@  @@@XXX@@@@@@@@@@@@@@@@@@  XXXXXXXXXXXXXXXXX+XXXXXXXXXXXXXXXX ",
" XXXX+XXXXXXXXXXXXXX@@@@@@@@@@XX@@@@ @@@@XXXX@@@@@@@@@@@@@@@@@@@@  XXXXXXXXXXXXX++XXXXXXXXXXX++XXXX ",
" XXXXXXXXXXXXXXX@@@@@@@@@@@XXXXX@@@ @@@@XXX@@@@@@@@@@@@@@@@@@@@@@@@ XXXXXXX+++++XXXXXXXXXXXXXX+XXXX ",
" XXXXXXXXXXXXX@@@@@@@@@@@XXXXXXX@@ @@@@@XXX@@@@@XXXXXXX@@@@@@@@@@@@@ XXXXX+XXXXXXXXXXXXXXXXXXX++XXX ",
" XXXXXXXXXXXX@@@@@@XX@@@XXXX@@@@@@ @@@@XXX@@@@@XXXXXXXX@@@@@@@@@@@@@@ XXXX+XXXXXXXXXXXXXXXXXXXX+XXX ",
" XXXXXXXX     @@@@@XX@@@XX@@@@@@@ @@@@@XX@@@@@@XX@@@@@@@@@@@@@@@@@@@@@ XXXX+XXXXXXXXXXXXXXXXXXX+XXX ",
" X       XX@@   @@@XX@@@@@@@@@@@ @@@@@@XX@@@@@@@@@@@@@@@@@@@@XXX@@@@@@@ XXX+XXXXXXXXXXXX+XXXXXX+XXX ",
"   XXX@@@@@@@@@    @@@@@@XXXXXX@ @@@@@@@@@@@@@@@@@@@@@@@@@@@XXXX@@@@@@@  XXXXXXXXXXXXXXX+XXXXXXXXXX ",
" @@XXXX@@@@@@@@@@@  @@@@@XXXXXX @@@@@@@@@@@@@@@@@@@@@@@@@@@XXXX@@@@@@@@@ XXXXXXXXXXXXXXXX+XXXXXXXXX ",
" @@@@XX@@@@@@@@@@@@@        @X @@@@@@@@@@@@@@@@@@@@@@@@@@@XXXX@@@@@@@@@@  XXXXXXXXXXXXXXX+XXXXXXXXX ",
" @@@@@@@@@@@@@@@@@@@@@@@@@@    @@@@@@@@@@@@XXXXX@@@@@@@@@@XXX@@@@@@@@@@@@ XXXXXXXXXXXXXXX+XXXXXXXXX ",
" @@@@@@@@@@@@@@@@@XXX@@@@@@@@@  @@@@@@@@XXXXXXXX@@@@@@@@@@XX@@@@XXXX@@@@@ XXXXXXXXXXXXX+++XXXXXXXXX ",
" @@@@@@@@@@@@@@@XXXXX@@@@@@@@@@  @@@@@@@XXXX@@@@@@@@@@@@@@@@@@@@XXXXX@@@@@ XXXXXXXXXXXX++XXXXXXXXXX ",
" @@@@@XX@@@@@@XXXXX@@@@@@@@@@@@@  @@@@@@@@@@@@@@@@@@@@@@@@XXX@@@@@XXX@@@@@  XXXXXXXXXXXXXXXXXXXXXXX ",
" @@@@@XX@@@@@@XXX@@@@@@@@@@@@@@@@ @@@@@@@@@@@@@@@@@@@@@@@@XXX@@@@@@@@@@@@@@ XXXXXXXXXXXXXXXXXXXXXXX ",
" @@@@@XX@@@XX@@@@@@@@@@@@@@@@@@@@  @@@@@@@@XX@@@@@@@@@@@@@@@@@@@@@@@@@@@@@@ XXXXXXXXXXXXXXXXXXXXXXX ",
" @@@@@XX@@@XX@@@@@@@@@@@@@@@XX@@@@@ @@@@@@@XXXXX@@@@@@@@@@@@@@@@@@@@@@@@@@@        XXXXXXXXXXXXXXX  ",
" @@@@@XX@@@XX@@@@@@@@@@@@@@@XX@@@@@ @@@@@@@XXXXX@@@@@@@@@@@@@@@@@@@@@@@@@@@ oooo++          XXX   ++",
" @@@@@XX@@@@@@@@@@@@@@@XXX@@XX@@@@@  @@@@@@@@@@@@@@@@XX@@@@@@@XX@@@@@@@@@@@ ++ooo+++ OOOO +    +oo++",
" @@@@@XXX@@@@@@@@@XXXXXXXX@@XX@@@@@@ @@@@@@@@@@@@@@XXXX@@@@@@@XX@@@@@@@@@@  ++ooo+++ OOOO ++++++oo++",
" @@@@@@XX@@@@@@@XXXXXXXX@@@@XX@@@@@    @@@@@@@@@@@@XXXX@@@@@@@XX@@@@@@@@@@ o+++oo+++ OOOO ++oooooo++",
"  @@@@@XXX@@@@@@XXXX@@@@@@@@@@@@@@@ ++ @@@@@@@@@@@@@@@@@@@@@@@XX@@@@@@@@@  o+++oo+.. OOOO ooooooo+++",
"+ @@@@@XXX@@@@@@@@@@@@@@@@@@@@@@@@@ ++  @@@@@@@@@@@@@@@@@@@@@@@@@@@@@@@   o++++oo+..  OOO  oo+++++++",
"+  @@@@@XX@@@@@@@@@@@@@@@@@@@@@@@@  +++  @@@@@@@@@@@@@@@@@@@@@@@@@@     o++++++oo++++ OOOO o++++++++",
"++  @@@@@@@@@@@@@@@@@@@@@@XXXXX@@@ o++++    @@@@@@@@@@@@@@@@@@@@@+  oooo+++..++++++++ OOOO o++++++++",
"+++  @@@@@@@@@@@@@@@@@@@@@XXXXX@@  oo+++++o                        ooo++++...++++++++ OOOO o++++oo++",
"++..  @@@@@@@@@@@@@@@@@@@@@@@@@@  +oo++++oooo++++++++ OOOOO ++oo+++oo+++++...++++++oo OOOO +++++oo++",
"++..o    @                       ++ooo+++ooo+++..++++ OOOO +++++++ooo++++++++oooooo.. OOOO ++++ooo++",
"+oooo+++     OOO O  +++++++ooo+++++..o+++oo++++..++++ OOOO +++++++oo+++++++++oooooo.. OOOO +++ooo+++",
"+ooo+++++++ OOOOOOO ++oo++++ooo++++..oo++ooo++++++++  OOO ++++oooooo++++ooo++++++++++ OOOO +++..o+++",
"+ooo++oo+++ OOOOOOO  +oo++++ooo++++++oo+++ooo+++++..  OOO +ooooo..o+++++oooo++++++++  OOOO ++o..++++",
"+ooo++oo+++ OOOOOOOO +oo+++++ooo++++ooo++++ooo++++... OOO +oooo+..+++++++ooooo+++++  OOOOO         O",
"++oo++oooo+ OOOOOOOO +..+++++o..++++ooo+++++oo++++oo+ OOO ++++++++++++++++oooo+++   OOOOOOOOOOOOOO  ",
"++oo++ooo.. OOOOOOOO +..+..+++..++++oo+++++     ++oo+ OOO  ++++++++oo+++++++++++  OOOOOOOOO$OOOO$  #",
"++oo+++++.. OOOOOOO  +oo+..++ooo++++oo++++OOOOO       OOOO ++++++++oo++++++++    OOOOOOOOOOO$##  #OO",
"+++++..++++ OOOOOO  oooo+++++ooo+++ooo++++      OOOOOOOOOO      +++oo+++##+   OOOO  #OOOOOOOO#OOOO  ",
"+++++..++++ OOOOOO Oooo++++++oo++++ooo+##+++###   OOOOOOOOOOOOO      @++##+OOO$@@O $OOOOOOOOOO#    $",
"++++++++++  OOOOOO Oo+++oo+++ooo+++oo$+##+++##$++  #OOOOOOOOOOOOOOO @@#+#####$$$O $$OOOOOOOOOO#$$##$",
"$$++###+++ OOOOOOO O++++ooo++$oo+++$$$$##+++##$$$###OOOOOOO  OOOO   ####$######OO $OOO  OOOOOO#$$$$$",
"$    ##$$  OOOOOOO  ++++$ooo$    O$$$$$##$$$$$$$$@@$OO  OOOOO$  OOOOOO##$$$$### $$OOOO #OOO OO$OOO$$",
"  OO      OOOOOOOOO ++$$     $OOO$  @$$##$$$$$$$$@OOOO$## OOOO$# #   OOO#$$$$###$OOOO  $OO#  O$   O#",
"$OOOOOOOOOOOOOOOOOOO    $$$OOOOO#  @@$$##$$$$$$$$OOOOO$@@$ OOO$$###$$   ##$$$$##OOOO$$$$$ O#  O$$  #",
"$    OOOOOOOOOOOOOOOOOOOOOOOOOO  $$@@$$##$$$$$$$$OOO O$@@$$  OOO$#@@$$$###$$$$$OOOO OO#$ $O##  O$###",
"$$$$   OOOOOOOOOOOOOOOOOOOO     $$$$$$###$$$$$$$OO $  O$$$$$#  O$#@@$$$$##@@$$OO O  $OO$$$O##$   O#$",
"$$$$##$OOOOO#OOOOOOOOOOO    @$$$$###$###$$$$$@@O O$$$$O$$$$###OOO##$$$$$$#@@$OO @O$$$ OO$ $O$$$$###$",
"$$$$#OOOOOOO OOOO OOOOOOOOO###$$$###$###$$$$$@ #$O##$$OO$$$##OO O$$$$$$$$##$$   #O$$$    $$O$$$$###$",
"OOOOOOOOOOO   OOO  $OOOOOOOOO#$$$$##$$$$$$$$$O  $ O@@$ O$$$##O$$OO$$$$$$$##$$$##O$$@@##$ $$ O$@@##$$",
"O  #OOOOO   @$OOO$$   OOOOOOOO#$$$##$$$$$$$OO ##$$O@@$$ $$$##O$$ OO$$@@$$###$$##OO$@@##$$##$O$@@#$$$",
"  $#OOOO  $##$OOOO$$@  O$   OO#$$$##$$$$###O $##$$O##$$$$$##@@$$ $ O$@@$$$##$$##$O$$##$$$##$ $$##$$$",
"$$$OOO$  #$##$ OOO$###  O$$$ OOO$$@@$$$#### $###$$ ##$$$$$##@@$$$   $@@@$$##$$$$O ####$$$##$$$$##$$$",
"$OO  O$$##$$$$#OOOO##$$ O##$ ##O$$@@$$$###$$$##$$$$###$$$$###$$$$###$$@@$$##$$$$ ####$$$$###$$###$##",
"$#  $OOO##$$$$#OO OO#$$ O##$ #  $$##$$$##$$$###$$$$$##$$$###$$$$$###$$$$$$###$$$###$$$$$$$##$$##$###",
"$##$#  OO@#$$$# O$  #$$$##$$O$##$$##$$$##$$$###$$$$$##$$$###$$$$####$$$$$$$##$$###$$$$$$$$##$$##$##$",
"$##$##$  @#$$$##O$$##$$$##$$$$$$$$##$$$##$$$##$$$$$$$$$$$##$$$$$###$$$$$$$$##$$##$$$$$$$$$##$$##$##$"
};
